<?xml version="1.0" encoding="UTF-8"?>
<svg id="_圖層_1" data-name="圖層_1" xmlns="http://www.w3.org/2000/svg" version="1.1" viewBox="0 0 1054 182">
  <!-- Generator: Adobe Illustrator 29.1.0, SVG Export Plug-In . SVG Version: 2.1.0 Build 142)  -->
  <defs>
    <style>
      .st0 {
        fill: #ffe2bc;
      }
    </style>
  </defs>
  <path class="st0" d="M83.6,121.5h-36.5l-6.6,27.5H0L40.5,23.6h51.7l38.7,125.4h-40.7l-6.6-27.5ZM65.1,50.7l-13,46.4h26.2l-12.3-46.4h-.9ZM209.4,45.6c10.6,0,18.9,3.5,25.1,10.6,6.3,6.9,9.5,19,9.5,36.3s-1.2,23.5-3.7,31.7c-2.5,8.1-5.4,13.4-8.6,16.1-3.2,2.6-8.9,4.8-16.9,6.4-7.9,1.6-16.1,2.4-24.6,2.4s-6.7-.1-12.5-.4v31.2l-37.6,1.5V47.8h30.8l3.7,15.6c3.8-5.4,8.7-9.8,14.5-13,6-3.2,12.8-4.8,20.5-4.8ZM200.6,122.2c1.6-1.2,2.8-4.5,3.5-9.9.7-5.6,1.1-10.9,1.1-15.8,0-8.2-1-14.3-3.1-18.3-2.1-4-6.2-5.9-12.3-5.9s-8.5.4-12.3,1.3v48.8l6.2.7c1.9.1,4.6.2,8.1.2,5,0,7.9-.4,8.8-1.1ZM328.2,45.6c10.6,0,18.9,3.5,25.1,10.6,6.3,6.9,9.5,19,9.5,36.3s-1.2,23.5-3.7,31.7c-2.5,8.1-5.4,13.4-8.6,16.1-3.2,2.6-8.9,4.8-16.9,6.4-7.9,1.6-16.1,2.4-24.6,2.4s-6.7-.1-12.5-.4v31.2l-37.6,1.5V47.8h30.8l3.7,15.6c3.8-5.4,8.7-9.8,14.5-13,6-3.2,12.8-4.8,20.5-4.8ZM319.4,122.2c1.6-1.2,2.8-4.5,3.5-9.9.7-5.6,1.1-10.9,1.1-15.8,0-8.2-1-14.3-3.1-18.3-2.1-4-6.2-5.9-12.3-5.9s-8.5.4-12.3,1.3v48.8l6.2.7c1.9.1,4.6.2,8.1.2,5,0,7.9-.4,8.8-1.1ZM378.1,17l37.6-1.5v133.5h-37.6V17ZM454,35.3c-5,0-9.3-1.7-13-5.1-3.5-3.4-5.3-7.4-5.3-12.1s1.8-8.7,5.3-12.1c3.7-3.4,8-5.1,13-5.1s9.2,1.7,12.8,5.1c3.5,3.4,5.3,7.4,5.3,12.1s-1.8,8.7-5.3,12.1c-3.5,3.4-7.8,5.1-12.8,5.1ZM435.1,47.8h37.6v101.2h-37.6V47.8ZM576.5,145.9c-11.9,4-25.2,5.9-39.8,5.9s-28.7-4.1-37-12.3c-8.1-8.4-12.1-21.3-12.1-38.9s1.2-17.2,3.5-25.5c2.3-8.5,4.8-14.2,7.5-17.2,3.1-3.4,9.1-6.2,18-8.6,9.1-2.3,18.5-3.5,28.2-3.5s20.3.9,30.6,2.6c-.3,3.7-.8,8-1.5,13-.6,4.8-1.2,9.2-2,13-9.1-.6-17.7-.9-25.7-.9s-13,.4-15.2,1.3c-1.2.4-2.3,3.4-3.3,9-.9,5.6-1.3,10.8-1.3,15.6s.9,11.4,2.6,15c1.9,3.4,4.8,5.7,8.8,7,4,1.3,9.3,2,16.1,2s9.4-.3,19.4-.9l3.3,23.3ZM649.4,149l-3.5-13.9c-6.7,11-16.1,16.5-28.2,16.5s-17.9-2.7-24.2-8.1c-6.2-5.6-9.2-13.3-9.2-23.3s1.8-11.5,5.3-16.1c3.7-4.7,8.7-8,15-9.9,8.2-2.3,20.9-3.7,38.1-4,0-9.7-.4-14.8-1.3-15.4-.7-.6-3.1-.9-7-.9s-5.9.1-10.3.4c-7,.3-16.6,1.1-28.6,2.4-1.2-7.9-2.1-16.4-2.6-25.5,7.8-1.6,15.9-2.9,24.4-4,8.5-1.2,16.1-1.8,22.9-1.8,11.7,0,20.5,2,26.4,5.9,5.9,3.8,9.7,8.9,11.4,15.2s2.6,14.3,2.4,24l-.2,32.3.7,26h-31.2ZM630.5,127c3.8,0,7.8-.7,12.1-2.2v-16.3h-1.8c-10.9,0-16.9.6-18,1.8-.7.7-1.3,1.8-1.8,3.3-.3,1.5-.4,2.9-.4,4.2,0,3.5.8,5.9,2.4,7.3,1.6,1.3,4.1,2,7.5,2ZM743.8,107.4c0,2.6,0,5.4.2,8.4.1,2.8.6,4.5,1.3,5.3,1,1,4.6,1.5,10.8,1.5l7.5-.2c1.3,7,2,15.2,2,24.4-2.8,1-6.9,2-12.3,2.9-5.3.9-10.3,1.3-15.2,1.3-10.1,0-18-2.2-23.5-6.6-5.4-4.5-8.1-11.5-8.1-20.9v-54.1h-16.5v-20l16.5-1.5,9.9-24.2,27.5-1.5v25.7h23.3v21.6h-23.3v38.1ZM798,35.3c-5,0-9.3-1.7-13-5.1-3.5-3.4-5.3-7.4-5.3-12.1s1.8-8.7,5.3-12.1c3.7-3.4,8-5.1,13-5.1s9.2,1.7,12.8,5.1c3.5,3.4,5.3,7.4,5.3,12.1s-1.8,8.7-5.3,12.1c-3.5,3.4-7.8,5.1-12.8,5.1ZM779,47.8h37.6v101.2h-37.6V47.8ZM884.1,151.9c-17.6,0-30.8-4.1-39.6-12.3-8.7-8.4-13-21.5-13-39.4s.9-18.4,2.6-25.7c1.9-7.5,4.2-12.7,6.8-15.6,3.4-3.8,9.5-7,18.5-9.5,9.1-2.5,17.6-3.7,25.5-3.7,18.9,0,32.4,4,40.5,12.1,8.1,8.1,12.1,21,12.1,38.7s-4.3,33.1-13,42c-8.7,8.9-22.1,13.4-40.5,13.4ZM884.8,126.1c5.7,0,9.5-2,11.2-5.9,1.8-4.1,2.6-11.3,2.6-21.6s-.4-12.7-1.1-16.5c-.7-4-2.1-6.8-4.2-8.6-1.9-1.9-4.9-2.9-9-2.9-5.9,0-9.2.5-10.1,1.5-1.2,1-2.1,4.3-2.9,9.7-.7,5.4-1.1,11.1-1.1,16.9,0,10,1,17,2.9,21.1,2.1,4.1,5.9,6.2,11.7,6.2ZM1049.9,54.2c1.3,1.6,2.3,5.6,2.9,12.1.7,6.5,1.1,16.3,1.1,29.5v53.2h-37.6v-61.8c0-4.7-.4-7.6-1.1-8.8-1.2-1.5-3.9-2.2-8.1-2.2s-3.6,0-4.6.2c-4.1.1-8.4,1.1-12.8,2.9v69.7h-37.6V47.8h30.6l4.2,16.9c10.6-12.8,23.2-19.1,37.8-19.1s10.2.7,14.7,2.2c4.7,1.5,8.2,3.6,10.6,6.4Z"/>
</svg>