<?xml version="1.0" encoding="utf-8"?>
<!-- Generator: Adobe Illustrator 28.1.0, SVG Export Plug-In . SVG Version: 6.00 Build 0)  -->
<svg version="1.1" id="_レイヤー_1" xmlns="http://www.w3.org/2000/svg" xmlns:xlink="http://www.w3.org/1999/xlink" x="0px"
	 y="0px" viewBox="0 0 283.5 283.5" style="enable-background:new 0 0 283.5 283.5;" xml:space="preserve">
<style type="text/css">
	.st0{fill:#F8B300;}
	.st1{fill:none;}
	.st2{enable-background:new    ;}
	.st3{fill:#FFFFFF;}
	.st4{font-family:'ArialMT';}
	.st5{font-size:12px;}
</style>
<circle class="st0" cx="141.7" cy="141.7" r="141.7"/>
<g>
	<path id="SVGID_x5F_1_x5F_" class="st1" d="M116.1,265.2C48,251,4.2,184.3,18.3,116.1s80.9-112,149-97.8s112,80.9,97.8,149
		C251,235.5,184.3,279.3,116.1,265.2z"/>
	<g class="st2">
		<path class="st3" d="M105.5,14.4l2.7-0.6l0.2,1l-2.7,0.6L105.5,14.4z M106,12.2l1-0.2l1.3,5.9l-1,0.2L106,12.2z M106.2,18.3
			c0.2-0.1,0.5-0.3,0.8-0.5c0.3-0.2,0.6-0.4,0.9-0.6c0.3-0.2,0.6-0.5,1-0.7l0.5,0.9c-0.4,0.3-0.8,0.6-1.3,1s-0.8,0.6-1.2,0.9
			L106.2,18.3z M107.9,12.2l5.4-1.2l0.2,0.9l-5.4,1.2L107.9,12.2z M108.8,17.5l5.8-1.3l0.2,0.9l-5.8,1.3L108.8,17.5z M108.8,13.4
			l4.1-0.9l0.8,3.6l-4.1,0.9L108.8,13.4z M110.6,18l1.1,0.1c-0.2,0.3-0.5,0.7-0.8,1s-0.7,0.6-1,0.8c-0.1-0.1-0.2-0.1-0.3-0.2
			c-0.1-0.1-0.2-0.1-0.4-0.2c-0.1-0.1-0.2-0.1-0.3-0.2c0.3-0.2,0.7-0.4,1-0.7C110.2,18.5,110.5,18.3,110.6,18z M109.9,11.1l1-0.2
			l0.5,2.3l-1,0.2L109.9,11.1z M110,13.8l0.1,0.3l2.2-0.5l-0.1-0.3L110,13.8z M110.2,14.8l0.1,0.4l2.2-0.5l-0.1-0.4L110.2,14.8z
			 M110.4,15.7l0.1,0.3l2.2-0.5l-0.1-0.3L110.4,15.7z M112.4,18.1l0.6-0.7c0.3,0.1,0.5,0.2,0.8,0.3c0.3,0.1,0.5,0.2,0.8,0.3
			c0.2,0.1,0.4,0.2,0.6,0.3l-0.9,0.7c-0.1-0.1-0.3-0.2-0.5-0.3c-0.2-0.1-0.4-0.2-0.7-0.3C112.9,18.3,112.6,18.2,112.4,18.1z"/>
	</g>
	<g class="st2">
		<path class="st3" d="M114.8,10.8l7.9-1.2l0.3,1.9l-1,0.2l-0.1-0.9l-5.8,0.9l0.1,0.9l-1,0.2L114.8,10.8z M117.6,14.3l1,0.1
			c-0.2,0.4-0.4,0.8-0.6,1.1c-0.3,0.4-0.6,0.7-0.9,1c-0.3,0.3-0.7,0.6-1,0.8c-0.1-0.1-0.1-0.1-0.2-0.2c-0.1-0.1-0.2-0.2-0.3-0.3
			c-0.1-0.1-0.2-0.2-0.3-0.2c0.3-0.2,0.7-0.4,1-0.6c0.3-0.2,0.6-0.5,0.8-0.8C117.3,14.9,117.5,14.6,117.6,14.3z M116.1,12l1,0
			l0.4,2.4l-1,0.1L116.1,12z M116.9,16.3l0.9,0.1c0,0.3-0.1,0.7-0.1,1s-0.2,0.6-0.4,0.9l-0.9-0.3c0.2-0.2,0.3-0.5,0.4-0.8
			C116.8,16.9,116.8,16.6,116.9,16.3z M116.4,14.2l4.7-0.7l-0.2-1.4l-1.6,0.3l-0.1-0.7l2.6-0.4l0.4,2.9l-5.6,0.9L116.4,14.2z
			 M118.1,11.3l0.7,0.6c-0.3,0.2-0.6,0.3-1,0.5c-0.4,0.2-0.7,0.3-1,0.4c0-0.1-0.1-0.2-0.2-0.3c-0.1-0.1-0.1-0.2-0.2-0.3
			c0.2-0.1,0.4-0.2,0.6-0.3s0.4-0.2,0.6-0.3C117.8,11.5,118,11.4,118.1,11.3z M116.5,13l2.2-0.3l0.1,0.7l-2.2,0.3L116.5,13z
			 M117.6,15.1l4.7-0.7l0.1,0.9l-5.6,0.9L117.6,15.1z M118,16.4l0.8-0.2c0.1,0.2,0.2,0.5,0.3,0.8c0.1,0.3,0.2,0.5,0.2,0.8l-0.8,0.2
			c0-0.2-0.1-0.5-0.2-0.8C118.2,16.9,118.1,16.6,118,16.4z M118,9.6l1.1-0.2l0.2,1.2l-1.1,0.2L118,9.6z M119.3,16.2l0.7-0.3
			c0.2,0.2,0.3,0.4,0.4,0.6c0.1,0.2,0.2,0.4,0.3,0.6l-0.8,0.3c0-0.2-0.1-0.4-0.2-0.6C119.5,16.6,119.4,16.4,119.3,16.2z M119.4,12.6
			l2-0.3l0.1,0.7l-2,0.3L119.4,12.6z M120.4,16l0.7-0.4c0.1,0.1,0.3,0.2,0.4,0.4c0.1,0.1,0.3,0.3,0.3,0.4l-0.7,0.4
			c-0.1-0.1-0.2-0.3-0.3-0.4C120.7,16.2,120.6,16.1,120.4,16z M122,14.5l1.1-0.2c0,0.2,0,0.3,0,0.4c0.1,0.5,0.1,0.9,0.1,1.2
			c0,0.3,0,0.6,0,0.8c0,0.2-0.1,0.3-0.1,0.4c-0.1,0.1-0.2,0.2-0.3,0.3c-0.1,0.1-0.2,0.1-0.4,0.1c-0.1,0-0.3,0.1-0.5,0.1
			c-0.2,0-0.4,0.1-0.6,0.1c0-0.1-0.1-0.3-0.2-0.5c-0.1-0.2-0.2-0.3-0.3-0.4c0.2,0,0.4,0,0.5,0c0.2,0,0.3,0,0.4-0.1
			c0.1,0,0.1,0,0.2,0c0,0,0.1,0,0.1-0.1c0-0.1,0.1-0.2,0.1-0.3c0-0.1,0-0.4,0-0.6c0-0.3-0.1-0.6-0.1-1.1L122,14.5z"/>
	</g>
	<g class="st2">
		<path class="st3" d="M127.9,12.1l1,0.4c-0.2,0.3-0.5,0.6-0.8,0.8c-0.3,0.3-0.6,0.5-1,0.8c-0.3,0.2-0.7,0.5-1.1,0.7
			c-0.4,0.2-0.7,0.4-1.1,0.5c-0.1-0.1-0.1-0.2-0.2-0.3c-0.1-0.1-0.2-0.2-0.3-0.3c-0.1-0.1-0.2-0.2-0.3-0.2c0.4-0.1,0.7-0.3,1.1-0.5
			c0.4-0.2,0.7-0.4,1-0.6c0.3-0.2,0.6-0.4,0.9-0.6C127.5,12.6,127.7,12.4,127.9,12.1z M124.4,12.1l8.1-0.7l0.1,0.9l-8.1,0.7
			L124.4,12.1z M124.5,9.3l7.5-0.6l0.1,0.9l-7.5,0.6L124.5,9.3z M125,10.7l6.7-0.6l0.1,0.9l-6.7,0.6L125,10.7z M125.4,16.2
			c0.4-0.1,0.8-0.2,1.3-0.4c0.5-0.1,1-0.3,1.5-0.4c0.5-0.2,1-0.3,1.5-0.5l0.2,1c-0.5,0.2-0.9,0.3-1.4,0.5c-0.5,0.2-0.9,0.3-1.4,0.4
			c-0.4,0.1-0.9,0.3-1.2,0.4L125.4,16.2z M126.4,14.2l0.7-0.8l0.4,0.1l0.2,2.6l-1.1,0.1L126.4,14.2z M127.6,8.4l1.1-0.1l0.4,4.2
			l-1.1,0.1L127.6,8.4z M129.5,12.2c0.2,0.6,0.5,1.1,0.8,1.6c0.3,0.5,0.7,0.9,1.2,1.2c0.5,0.3,1,0.5,1.7,0.6
			c-0.1,0.1-0.1,0.2-0.2,0.3c-0.1,0.1-0.2,0.2-0.2,0.4c-0.1,0.1-0.1,0.2-0.2,0.4c-0.7-0.2-1.3-0.4-1.8-0.8c-0.5-0.4-0.9-0.8-1.3-1.4
			c-0.4-0.6-0.7-1.2-0.9-1.9L129.5,12.2z M131.6,12.5l1,0.6c-0.2,0.2-0.4,0.4-0.7,0.6s-0.5,0.4-0.7,0.5c-0.2,0.2-0.4,0.3-0.7,0.4
			l-0.7-0.5c0.2-0.1,0.4-0.3,0.6-0.5c0.2-0.2,0.4-0.4,0.6-0.6C131.3,12.9,131.5,12.7,131.6,12.5z"/>
	</g>
	<g class="st2">
		<path class="st3" d="M133.8,14.4l8.2-0.1l0,1l-8.2,0.1L133.8,14.4z M134.2,8.3l3.3-0.1l0,1.9l-3.3,0.1L134.2,8.3z M134.6,10.5
			l6.5-0.1l0.1,3.5l-6.5,0.1L134.6,10.5z M135.2,8.9l0,0.5l1.3,0l0-0.5L135.2,8.9z M135.7,11.3l0,0.5l4.3-0.1l0-0.5L135.7,11.3z
			 M135.7,12.6l0,0.5L140,13l0-0.5L135.7,12.6z M137.2,10.9l1.1,0l0.1,5.6l-1.1,0L137.2,10.9z M138.1,8.2l3.3-0.1l0,1.9l-3.3,0.1
			L138.1,8.2z M139.1,8.9l0,0.5l1.3,0l0-0.5L139.1,8.9z"/>
	</g>
	<g class="st2">
		<path class="st3" d="M142.9,16.9l-0.3-0.8c0.4-0.1,0.7-0.3,0.9-0.5c0.2-0.2,0.3-0.4,0.3-0.7l0-0.9l0.5,0.8
			c-0.1,0.1-0.2,0.1-0.3,0.1c-0.1,0-0.2,0-0.3,0c-0.2,0-0.4-0.1-0.6-0.2c-0.2-0.2-0.2-0.4-0.2-0.6c0-0.3,0.1-0.5,0.3-0.6
			c0.2-0.1,0.4-0.2,0.6-0.2c0.3,0,0.6,0.1,0.7,0.4c0.2,0.2,0.2,0.5,0.2,0.9c0,0.5-0.2,1-0.5,1.3C143.9,16.4,143.5,16.7,142.9,16.9z"
			/>
	</g>
	<g class="st2">
		<path class="st3" d="M152.1,13.5c0.4,0,0.8,0,1.3,0c0.5,0,1,0,1.6-0.1c0.6,0,1.1-0.1,1.6-0.1l0,1c-0.5,0-1,0.1-1.5,0.1
			c-0.5,0-1,0.1-1.5,0.1c-0.5,0-0.9,0.1-1.3,0.1L152.1,13.5z M154.5,9.7l1.1,0.1l-0.7,6.2c0,0.3-0.1,0.5-0.2,0.7
			c-0.1,0.2-0.2,0.3-0.4,0.3c-0.2,0.1-0.4,0.1-0.7,0.1c-0.3,0-0.6,0-1-0.1c0-0.1,0-0.2,0-0.4c0-0.1-0.1-0.3-0.1-0.4
			c0-0.1-0.1-0.3-0.1-0.4c0.3,0,0.5,0.1,0.7,0.1c0.2,0,0.4,0,0.5,0c0.1,0,0.1,0,0.2,0c0,0,0.1-0.1,0.1-0.1L154.5,9.7z M152.6,10.9
			l8.2,1l-0.1,1l-8.2-1L152.6,10.9z M156.5,8.8l0.6,1c-0.4,0.1-0.8,0.1-1.3,0.2c-0.5,0-1,0.1-1.4,0.1c-0.5,0-1,0-1.4,0
			c0-0.1,0-0.3-0.1-0.5c0-0.2-0.1-0.3-0.1-0.5c0.4,0,0.9,0,1.3,0c0.5,0,0.9-0.1,1.3-0.1C155.8,8.9,156.2,8.9,156.5,8.8z M159.4,13.1
			l0.9,0.5c-0.4,0.5-0.8,1-1.3,1.4c-0.5,0.4-1,0.8-1.5,1.2c-0.5,0.3-1.1,0.6-1.7,0.8c-0.1-0.1-0.2-0.3-0.3-0.5s-0.2-0.3-0.4-0.5
			c0.5-0.2,1.1-0.4,1.6-0.7c0.5-0.3,1-0.6,1.5-1C158.7,14,159.1,13.5,159.4,13.1z M157.4,8.9l1.1,0.1c-0.1,0.7-0.2,1.5-0.2,2.2
			c0,0.7,0,1.4,0,2c0,0.6,0.1,1.2,0.2,1.7s0.2,0.9,0.3,1.2c0.1,0.3,0.3,0.4,0.4,0.5c0.1,0,0.2-0.1,0.3-0.3c0.1-0.2,0.2-0.6,0.2-1.2
			c0.1,0.1,0.2,0.3,0.4,0.4s0.3,0.2,0.4,0.3c-0.1,0.5-0.3,0.9-0.4,1.2c-0.1,0.3-0.3,0.5-0.5,0.6c-0.2,0.1-0.4,0.1-0.7,0.1
			c-0.3,0-0.6-0.2-0.8-0.4c-0.2-0.3-0.4-0.6-0.6-1c-0.1-0.4-0.3-0.9-0.3-1.5s-0.1-1.2-0.1-1.8c0-0.6,0-1.3,0-2
			C157.3,10.3,157.3,9.6,157.4,8.9z M158.8,9.8l0.9-0.5c0.1,0.2,0.3,0.3,0.5,0.5c0.2,0.2,0.3,0.4,0.4,0.6c0.1,0.2,0.2,0.4,0.3,0.5
			l-1,0.5c-0.1-0.2-0.1-0.3-0.3-0.5c-0.1-0.2-0.3-0.4-0.4-0.6C159.1,10.2,158.9,10,158.8,9.8z"/>
	</g>
	<g class="st2">
		<path class="st3" d="M163.9,9.8l0.9,0.5c-0.3,0.5-0.6,1-0.9,1.5c-0.3,0.5-0.7,0.9-1.1,1.4c-0.4,0.4-0.7,0.8-1.1,1.1
			c0-0.1,0-0.2-0.1-0.4c0-0.2-0.1-0.3-0.1-0.5c0-0.2-0.1-0.3-0.1-0.4c0.3-0.2,0.6-0.5,0.9-0.9c0.3-0.3,0.6-0.7,0.8-1.1
			S163.7,10.2,163.9,9.8z M162.7,12.1l1.2-0.8l0,0l-1.3,6.9l-1-0.2L162.7,12.1z M164.8,10.4l1,0.2l-1.5,8l-1-0.2L164.8,10.4z
			 M165.4,10.6l1.9,0.3l-0.6,3.5l-1.9-0.3l0.2-0.8l1.1,0.2l0.3-1.8l-1.1-0.2L165.4,10.6z M165.1,11.9l1.6,0.3l-0.1,0.8l-1.6-0.3
			L165.1,11.9z M169.4,11.3l1,0.2l-1.2,6.7c-0.1,0.3-0.1,0.5-0.2,0.7s-0.2,0.2-0.5,0.3c-0.2,0-0.5,0.1-0.7,0s-0.7-0.1-1.1-0.2
			c0-0.1,0-0.2,0-0.3c0-0.1,0-0.3-0.1-0.4c0-0.1-0.1-0.3-0.1-0.4c0.2,0,0.4,0.1,0.6,0.1s0.4,0.1,0.5,0.1c0.1,0,0.3,0,0.3,0.1
			c0.1,0,0.1,0,0.2,0c0,0,0.1-0.1,0.1-0.2L169.4,11.3z M169.9,11.4l-0.2,0.8l-1.3-0.2l-0.3,1.8l1.3,0.2l-0.2,0.8l-2.2-0.4l0.6-3.5
			L169.9,11.4z M167.9,12.4l1.6,0.3l-0.1,0.8l-1.6-0.3L167.9,12.4z"/>
	</g>
	<g class="st2">
		<path class="st3" d="M171,16.2l0.9,0.2l-0.1,0.5c0,0.2-0.1,0.4-0.2,0.6c-0.1,0.2-0.2,0.5-0.3,0.8c-0.1,0.3-0.3,0.5-0.4,0.8
			c-0.2,0.3-0.3,0.5-0.5,0.7c0-0.1-0.1-0.2-0.2-0.2c-0.1-0.1-0.2-0.2-0.2-0.3c-0.1-0.1-0.2-0.2-0.2-0.2c0.2-0.2,0.4-0.5,0.6-0.8
			c0.2-0.3,0.3-0.6,0.4-0.9c0.1-0.3,0.2-0.5,0.2-0.8L171,16.2z M170.6,15.7l2.4,0.6l-0.2,0.9l-2.4-0.6L170.6,15.7z M172,11.8
			l0.9,0.2l-0.5,2l1.2,0.3l-0.2,0.9l-2.1-0.5L172,11.8z M173.7,11.8l1,0.2l-2.1,8.3l-1-0.2L173.7,11.8z M173.8,16.6l5.1,1.3
			l-0.2,0.9l-5.1-1.3L173.8,16.6z M173.9,18.2l0.9-0.3c0.1,0.2,0.3,0.5,0.4,0.8c0.1,0.3,0.2,0.5,0.2,0.7l-1,0.3
			c0-0.1-0.1-0.3-0.1-0.5c-0.1-0.2-0.1-0.4-0.2-0.5C174,18.5,174,18.3,173.9,18.2z M178.7,13.8l0.2,0l0.2,0l0.6,0.5
			c-0.3,0.4-0.7,0.8-1.1,1.1c-0.4,0.3-0.8,0.6-1.3,0.8c-0.5,0.2-0.9,0.3-1.4,0.4c-0.5,0.1-1,0.2-1.5,0.2c0-0.1-0.1-0.3-0.1-0.5
			c-0.1-0.2-0.1-0.3-0.2-0.4c0.5,0,0.9,0,1.4-0.1c0.5-0.1,0.9-0.2,1.3-0.3c0.4-0.2,0.8-0.4,1.1-0.6c0.3-0.3,0.6-0.5,0.9-0.9
			L178.7,13.8z M177.1,12.7l1,0.5c-0.3,0.3-0.7,0.5-1.1,0.7c-0.4,0.2-0.8,0.4-1.2,0.6c-0.4,0.2-0.8,0.3-1.2,0.4
			c0-0.1-0.1-0.2-0.1-0.3c-0.1-0.1-0.1-0.2-0.2-0.3c-0.1-0.1-0.1-0.2-0.2-0.3c0.4-0.1,0.8-0.2,1.1-0.3c0.4-0.1,0.7-0.3,1.1-0.5
			C176.6,13.1,176.9,12.9,177.1,12.7z M174.8,14.6l0.7-0.3c0.1,0.1,0.2,0.3,0.4,0.4c0.1,0.2,0.2,0.3,0.3,0.5
			c0.1,0.2,0.2,0.3,0.2,0.4l-0.8,0.3c0-0.1-0.1-0.3-0.2-0.4c-0.1-0.2-0.2-0.3-0.3-0.5S174.9,14.7,174.8,14.6z M177.2,16.4l1,0.3
			l-0.9,3.7c-0.1,0.3-0.1,0.5-0.2,0.6c-0.1,0.1-0.2,0.2-0.4,0.3c-0.2,0-0.4,0-0.7,0c-0.2,0-0.5-0.1-0.9-0.2c0-0.2,0-0.3,0-0.6
			c0-0.2,0-0.4-0.1-0.6c0.2,0.1,0.4,0.1,0.6,0.2c0.2,0.1,0.3,0.1,0.4,0.1c0.1,0,0.1,0,0.1,0s0.1-0.1,0.1-0.1L177.2,16.4z M176,14.2
			l0.6-0.4c0.1,0.1,0.3,0.2,0.4,0.4c0.1,0.2,0.3,0.3,0.4,0.4c0.1,0.1,0.2,0.3,0.2,0.4l-0.7,0.4c0-0.1-0.1-0.3-0.2-0.4
			c-0.1-0.2-0.2-0.3-0.3-0.5C176.2,14.5,176.1,14.3,176,14.2z M176.8,13.3l2.3,0.6l-0.4,0.7l-2.5-0.6L176.8,13.3z"/>
	</g>
	<g class="st2">
		<path class="st3" d="M179.1,19.7c0.3,0.1,0.7,0.1,1.2,0.2s0.9,0.1,1.4,0.2l-0.2,0.9c-0.4,0-0.9-0.1-1.3-0.2
			c-0.4-0.1-0.9-0.1-1.2-0.2L179.1,19.7z M181.3,14.7l0.9,0.3l-1.8,5.5l-0.9-0.3L181.3,14.7z M182.9,15.2l0.9,0.3l-2.4,7.4l-0.9-0.3
			L182.9,15.2z M180.8,18l1.5,0.5l-0.3,0.9l-1.5-0.5L180.8,18z M181.1,14l3.2,1.1L184,16l-3.2-1.1L181.1,14z M181.4,16.2l1.5,0.5
			l-0.3,0.9l-1.5-0.5L181.4,16.2z M184.2,19.5l0.8,0.3l-0.5,1.5c-0.1,0.3-0.2,0.6-0.4,0.9s-0.4,0.5-0.7,0.7
			c-0.3,0.2-0.7,0.3-1.1,0.3c0-0.1,0-0.2-0.1-0.3s-0.1-0.2-0.1-0.3s-0.1-0.2-0.1-0.3c0.4,0,0.6-0.1,0.9-0.2c0.2-0.1,0.4-0.3,0.5-0.5
			c0.1-0.2,0.2-0.4,0.3-0.6L184.2,19.5z M182.9,19.3l0.8,0.2l-0.8,2.3l-0.8-0.2L182.9,19.3z M182.7,20.7l1.3,0.4l-0.2,0.7l-1.3-0.4
			L182.7,20.7z M183,18.2c0.3,0.1,0.6,0.2,1,0.3c0.4,0.1,0.8,0.2,1.2,0.3l-0.2,0.7c-0.4-0.1-0.8-0.2-1.1-0.2c-0.4-0.1-0.7-0.2-1-0.2
			L183,18.2z M185.6,16.4l0.7,0.5c-0.2,0.2-0.5,0.4-0.8,0.7c-0.3,0.2-0.6,0.5-0.9,0.7c-0.3,0.2-0.5,0.4-0.8,0.6l-0.5-0.4
			c0.2-0.2,0.5-0.4,0.8-0.6c0.3-0.2,0.5-0.5,0.8-0.7C185.2,16.8,185.4,16.6,185.6,16.4z M183.7,16.4l0.6-0.5
			c0.1,0.2,0.3,0.5,0.4,0.7s0.2,0.5,0.3,0.7l-0.7,0.5c0-0.2-0.1-0.4-0.2-0.7C184,16.9,183.8,16.7,183.7,16.4z M185.3,15.1l0.8,0.5
			c-0.2,0.2-0.5,0.5-0.8,0.7c-0.3,0.2-0.5,0.4-0.7,0.6l-0.5-0.4c0.1-0.1,0.3-0.3,0.4-0.4c0.1-0.2,0.3-0.3,0.4-0.5
			C185.1,15.4,185.2,15.2,185.3,15.1z M185.5,19.9l0.8,0.3L185,24l-0.8-0.3L185.5,19.9z M184.9,18.1l0.7,0c0,0.2,0.1,0.5,0.1,0.8
			c0,0.3,0,0.5-0.1,0.7l-0.7,0c0-0.2,0.1-0.4,0.1-0.7C184.9,18.6,184.9,18.4,184.9,18.1z M185.5,21.6l1.3,0.4l-0.2,0.7l-1.3-0.4
			L185.5,21.6z M185.6,19c0.3,0.1,0.6,0.2,1,0.3c0.4,0.1,0.8,0.2,1.2,0.3l-0.2,0.7c-0.4-0.1-0.8-0.2-1.1-0.2s-0.7-0.2-1-0.2
			L185.6,19z M188,17.1l0.7,0.5c-0.2,0.2-0.5,0.4-0.8,0.7s-0.6,0.5-0.8,0.7s-0.5,0.4-0.8,0.5l-0.5-0.4c0.2-0.2,0.5-0.4,0.8-0.6
			c0.3-0.2,0.5-0.5,0.8-0.7C187.6,17.6,187.8,17.4,188,17.1z M186.7,20.6l0.8,0.3l-0.8,2.3l-0.8-0.3L186.7,20.6z M186.1,17.2
			l0.6-0.5c0.2,0.2,0.3,0.5,0.5,0.7s0.2,0.5,0.3,0.7l-0.7,0.6c0-0.2-0.1-0.4-0.3-0.7S186.2,17.4,186.1,17.2z M187.7,15.8l0.8,0.5
			c-0.2,0.2-0.5,0.5-0.8,0.7c-0.3,0.2-0.5,0.4-0.7,0.6l-0.5-0.4c0.1-0.1,0.3-0.3,0.4-0.4c0.1-0.2,0.3-0.3,0.4-0.5
			C187.4,16.1,187.6,16,187.7,15.8z M187.3,18.9l0.7,0c0,0.3,0.1,0.5,0.1,0.8c0,0.3,0,0.5-0.1,0.7l-0.7,0c0-0.2,0.1-0.5,0.1-0.8
			C187.3,19.5,187.3,19.2,187.3,18.9z"/>
	</g>
	<g class="st2">
		<path class="st3" d="M188.6,21.8l0.8,0.5c-0.2,0.4-0.4,0.8-0.7,1.1c-0.2,0.4-0.5,0.7-0.7,0.9c0-0.1-0.1-0.1-0.2-0.2
			c-0.1-0.1-0.2-0.2-0.2-0.3c-0.1-0.1-0.2-0.2-0.2-0.2c0.2-0.2,0.4-0.5,0.7-0.8C188.2,22.5,188.4,22.2,188.6,21.8z M189.8,21.4
			l0.9,0.4l-1.5,3.8l-0.9-0.4L189.8,21.4z M188.7,20.4c0.4,0.1,0.9,0.3,1.4,0.5s1.1,0.4,1.7,0.6l-0.3,0.8c-0.5-0.2-1.1-0.3-1.6-0.5
			s-1-0.3-1.4-0.5L188.7,20.4z M192.1,18.6l0.7,0.7c-0.3,0.2-0.7,0.5-1.1,0.7s-0.8,0.5-1.1,0.7c-0.4,0.2-0.7,0.4-1,0.6l-0.5-0.6
			c0.2-0.1,0.5-0.3,0.8-0.5c0.3-0.2,0.5-0.4,0.8-0.6s0.5-0.4,0.8-0.6C191.7,19,191.9,18.8,192.1,18.6z M189.4,18.7l0.8-0.5
			c0.1,0.2,0.2,0.4,0.3,0.6s0.2,0.4,0.2,0.6c0.1,0.2,0.1,0.4,0.1,0.5l-0.8,0.6c0-0.2-0.1-0.4-0.1-0.6c-0.1-0.2-0.1-0.4-0.2-0.7
			S189.5,18.9,189.4,18.7z M191.5,17.2l0.8,0.7c-0.2,0.2-0.4,0.3-0.6,0.5c-0.2,0.2-0.4,0.4-0.6,0.5c-0.2,0.2-0.4,0.3-0.6,0.4
			l-0.6-0.6c0.2-0.1,0.4-0.3,0.6-0.5c0.2-0.2,0.4-0.4,0.6-0.6C191.2,17.6,191.4,17.4,191.5,17.2z M190.3,22.7l0.8,0.1
			c0,0.3,0,0.6,0,0.9s0,0.6-0.1,0.8l-0.9,0c0-0.2,0.1-0.5,0.1-0.9C190.3,23.3,190.3,23,190.3,22.7z M192,22.9l3.8,1.5l-1.3,3.2
			l-1-0.4l1-2.4l-1.9-0.7l-1,2.4l-1-0.4L192,22.9z M191,20.5l0.8,0c0,0.2,0.1,0.5,0.1,0.7s0,0.5,0,0.7s0,0.4-0.1,0.6l-0.9,0
			c0-0.2,0.1-0.4,0.1-0.6c0-0.2,0-0.5,0-0.8C191.1,21,191,20.8,191,20.5z M191.7,25.2l2.6,1l-0.4,0.9l-2.6-1L191.7,25.2z
			 M196.6,20.1l0.2,0.1l0.2,0l0.5,0.6c-0.5,0.6-1.1,1-1.7,1.3c-0.6,0.3-1.3,0.6-2,0.8c-0.7,0.2-1.3,0.2-2,0.2c0-0.1,0-0.2-0.1-0.3
			c0-0.1-0.1-0.3-0.1-0.4c0-0.1-0.1-0.2-0.1-0.3c0.6,0,1.3,0,1.9-0.1s1.2-0.3,1.7-0.6c0.5-0.3,1-0.6,1.4-1.1L196.6,20.1z
			 M194.9,18.6l0.9,0.6c-0.3,0.3-0.6,0.6-0.9,0.8c-0.3,0.3-0.7,0.5-1.1,0.7c-0.4,0.2-0.8,0.4-1.3,0.5c0-0.1,0-0.2-0.1-0.3
			c0-0.1-0.1-0.2-0.1-0.4c-0.1-0.1-0.1-0.2-0.2-0.3c0.4-0.1,0.8-0.2,1.1-0.4c0.3-0.2,0.7-0.4,1-0.6C194.4,19,194.7,18.8,194.9,18.6z
			 M194.3,20.1c0.1,0.5,0.2,0.9,0.5,1.4s0.5,0.9,0.9,1.4c0.3,0.4,0.7,0.8,1.1,1.2c-0.1,0-0.2,0.1-0.3,0.1c-0.1,0.1-0.2,0.1-0.4,0.2
			c-0.1,0.1-0.2,0.1-0.3,0.2c-0.4-0.4-0.8-0.8-1.1-1.3s-0.6-1-0.8-1.5s-0.4-1.1-0.5-1.6L194.3,20.1z M194.7,19.4l2.1,0.9l-0.4,0.9
			l-2.6-1L194.7,19.4z"/>
	</g>
	<g class="st2">
		<path class="st3" d="M197.8,26.1l0.7,0.7c-0.3,0.3-0.6,0.6-1,0.9c-0.4,0.3-0.7,0.4-1.2,0.5l-0.5-1c0.4-0.1,0.7-0.2,1.1-0.4
			C197.2,26.6,197.5,26.4,197.8,26.1z M198.8,26.5l1,0.5l-0.6,1.3c-0.1,0.1-0.1,0.2,0,0.3c0,0.1,0.1,0.1,0.3,0.2
			c0,0,0.1,0.1,0.2,0.1c0.1,0,0.2,0.1,0.3,0.2c0.1,0.1,0.2,0.1,0.3,0.2s0.2,0.1,0.2,0.1c0.1,0.1,0.2,0.1,0.3,0.1
			c0.1,0,0.1-0.1,0.2-0.2c0.1-0.1,0.2-0.3,0.3-0.5c0,0.1,0.1,0.2,0.2,0.3c0.1,0.1,0.2,0.2,0.3,0.3c0.1,0.1,0.2,0.2,0.3,0.2
			c-0.2,0.3-0.4,0.6-0.6,0.7c-0.2,0.2-0.4,0.2-0.6,0.2c-0.2,0-0.4-0.1-0.7-0.2c0,0-0.1-0.1-0.2-0.1c-0.1,0-0.2-0.1-0.3-0.1
			c-0.1-0.1-0.2-0.1-0.3-0.2c-0.1-0.1-0.2-0.1-0.3-0.1c-0.1,0-0.2-0.1-0.2-0.1c-0.4-0.2-0.6-0.3-0.8-0.5c-0.2-0.2-0.2-0.3-0.2-0.5
			c0-0.2,0.1-0.4,0.2-0.7L198.8,26.5z M199.5,22.6l1.4-0.5l0,0l-2,4l-0.9-0.5L199.5,22.6z M201,21.2l0.7,0.7
			c-0.3,0.3-0.7,0.5-1.1,0.7s-0.8,0.4-1.2,0.6c-0.4,0.2-0.8,0.3-1.2,0.4c0-0.1,0-0.2,0-0.3s0-0.3-0.1-0.4c0-0.1-0.1-0.3-0.1-0.3
			c0.5-0.1,1-0.2,1.6-0.5C200.1,21.8,200.6,21.6,201,21.2z M199.6,26.7l0.9-0.2c0.1,0.2,0.2,0.4,0.4,0.6s0.2,0.4,0.3,0.6
			c0.1,0.2,0.2,0.4,0.2,0.5l-1,0.3c0-0.2-0.1-0.3-0.2-0.6c-0.1-0.2-0.2-0.4-0.3-0.6C199.8,27,199.7,26.8,199.6,26.7z M201.6,24.1
			l0.8,0.7c-0.3,0.3-0.6,0.5-0.9,0.7c-0.3,0.2-0.7,0.4-1,0.5c0-0.1-0.1-0.2-0.1-0.3c-0.1-0.1-0.1-0.2-0.2-0.3
			c-0.1-0.1-0.1-0.2-0.2-0.3c0.3-0.1,0.6-0.2,0.9-0.4C201.1,24.5,201.3,24.3,201.6,24.1z M202.6,22l0.8,0.7c-0.4,0.4-0.8,0.7-1.2,1
			s-0.9,0.5-1.3,0.6c0-0.1-0.1-0.2-0.1-0.3c-0.1-0.1-0.1-0.2-0.2-0.4c-0.1-0.1-0.1-0.2-0.2-0.3c0.4-0.1,0.7-0.3,1.1-0.5
			S202.3,22.3,202.6,22z M203.1,23.9l0.9,0.5l-1.2,2.6c-0.1,0.2-0.2,0.4-0.3,0.5c-0.1,0.1-0.3,0.2-0.4,0.2c-0.2,0-0.4,0-0.6-0.1
			c-0.2-0.1-0.4-0.2-0.7-0.3c0-0.1,0.1-0.3,0.1-0.5c0-0.2,0-0.4,0-0.5c0.2,0.1,0.3,0.2,0.4,0.2c0.1,0.1,0.2,0.1,0.3,0.1
			c0.1,0,0.1,0,0.1,0c0,0,0,0,0.1-0.1L203.1,23.9z M202.5,22.8l3.3,1.6l-0.4,0.8l-3.6-1.8L202.5,22.8z M202,28.5l1-0.1
			c0.1,0.3,0.2,0.6,0.3,0.9c0.1,0.3,0.1,0.6,0.2,0.9c0,0.3,0.1,0.6,0.1,0.8l-1.1,0.1c0-0.2,0-0.5,0-0.8c0-0.3-0.1-0.6-0.2-0.9
			C202.2,29.1,202.1,28.8,202,28.5z M203.7,25.5l1,0c0,0.2,0.1,0.5,0.1,0.8c0,0.3,0,0.5,0,0.8c0,0.2,0,0.5,0,0.7l-1.1,0
			c0-0.2,0-0.4,0.1-0.7c0-0.3,0-0.5,0-0.8C203.8,26,203.8,25.8,203.7,25.5z M205.5,24.3l0.1,0.1l0.2,0.1l0.6,0.5
			c-0.2,0.2-0.5,0.5-0.7,0.7c-0.3,0.2-0.5,0.4-0.7,0.6l-0.8-0.6c0.2-0.1,0.4-0.3,0.6-0.5c0.2-0.2,0.4-0.4,0.6-0.6L205.5,24.3z"/>
	</g>
	<g class="st2">
		<path class="st3" d="M205.7,32.4c-0.2-0.1-0.3-0.3-0.4-0.5c-0.1-0.2,0-0.4,0.1-0.6c0.1-0.2,0.3-0.3,0.5-0.4c0.2-0.1,0.4,0,0.6,0.1
			c0.2,0.1,0.3,0.3,0.4,0.5c0.1,0.2,0,0.4-0.1,0.6c-0.1,0.2-0.3,0.3-0.5,0.4S205.9,32.5,205.7,32.4z M206.5,30.1l1.3-2.8l0.6-1.2
			l1.3,0.8l-0.7,1.2l-1.8,2.6L206.5,30.1z"/>
	</g>
</g>
<text class="st4 st5"> </text>
</svg>
