<svg width="12" height="982" viewBox="0 0 12 982" fill="none" xmlns="http://www.w3.org/2000/svg">
<path d="M8.11133 979.529C8.11133 979.865 8.02733 980.163 7.85933 980.425C7.70066 980.695 7.48599 980.91 7.21533 981.069C6.95399 981.237 6.65533 981.321 6.31933 981.321C5.99266 981.321 5.69399 981.237 5.42333 981.069C5.15266 980.91 4.93333 980.695 4.76533 980.425C4.60666 980.163 4.52733 979.865 4.52733 979.529C4.52733 979.202 4.60666 978.903 4.76533 978.633C4.93333 978.362 5.15266 978.143 5.42333 977.975C5.69399 977.816 5.99266 977.737 6.31933 977.737C6.65533 977.737 6.95399 977.816 7.21533 977.975C7.48599 978.143 7.70066 978.362 7.85933 978.633C8.02733 978.903 8.11133 979.202 8.11133 979.529Z" fill="#F8B300" fill-opacity="0.5"/>
<path d="M6.1511 970.574L6.1511 968.049C6.30688 968.035 6.44111 967.981 6.5538 967.885C6.66649 967.789 6.75266 967.664 6.81232 967.512C6.8753 967.363 6.90678 967.197 6.90678 967.015C6.90678 966.779 6.8637 966.577 6.77752 966.408C6.69135 966.239 6.56871 966.156 6.40962 966.159C6.29693 966.156 6.19253 966.204 6.09641 966.304C6.0003 966.406 5.92572 966.604 5.87269 966.895L5.59428 968.446C5.45176 969.229 5.21147 969.81 4.8734 970.191C4.53865 970.576 4.08955 970.77 3.5261 970.773C2.98254 970.77 2.51024 970.607 2.1092 970.286C1.71147 969.968 1.40323 969.532 1.18448 968.978C0.969045 968.428 0.861327 967.8 0.861327 967.094C0.861328 965.928 1.09996 965.014 1.57724 964.355C2.05451 963.699 2.68424 963.332 3.46644 963.256L3.46644 965.981C3.22449 966.017 3.03723 966.136 2.90465 966.339C2.77539 966.544 2.71076 966.802 2.71076 967.114C2.71076 967.366 2.75385 967.573 2.84002 967.735C2.9262 967.901 3.04883 967.986 3.20792 967.989C3.35375 967.986 3.46976 967.913 3.55593 967.77C3.6421 967.631 3.71171 967.412 3.76474 967.114L4.00337 965.762C4.13926 964.983 4.39779 964.4 4.77894 964.012C5.1601 963.624 5.65063 963.432 6.25053 963.435C6.78084 963.432 7.22994 963.571 7.59783 963.853C7.96905 964.138 8.25077 964.544 8.443 965.071C8.63855 965.601 8.73633 966.229 8.73633 966.955C8.73633 968.059 8.50763 968.929 8.05025 969.565C7.59286 970.205 6.95981 970.541 6.1511 970.574Z" fill="#F8B300" fill-opacity="0.5"/>
<path d="M1.00053 956.124L8.6369 956.124L8.6369 958.789L7.18519 958.789L7.18519 958.868C7.72212 959.008 8.11488 959.228 8.36346 959.53C8.61204 959.834 8.73633 960.191 8.73633 960.598C8.73633 960.718 8.72638 960.835 8.7065 960.951C8.68993 961.071 8.66507 961.185 8.63192 961.294L6.29031 961.294C6.33671 961.159 6.37151 960.991 6.39471 960.792C6.41791 960.593 6.42951 960.423 6.42951 960.28C6.42951 960.012 6.36819 959.77 6.24556 959.554C6.12624 959.342 5.95721 959.175 5.73846 959.052C5.52302 958.93 5.26947 958.868 4.97781 958.868L1.00053 958.868L1.00053 956.124Z" fill="#F8B300" fill-opacity="0.5"/>
<path d="M4.34126 950.584L8.63672 950.584L8.63672 953.328L1.00035 953.328L1.00035 950.723L2.45206 950.723L2.45206 950.643C1.96484 950.478 1.58369 950.188 1.30859 949.773C1.03681 949.359 0.900923 948.867 0.900923 948.297C0.900923 947.763 1.02356 947.296 1.26882 946.895C1.51409 946.497 1.85215 946.187 2.28302 945.965C2.7139 945.746 3.20774 945.635 3.76456 945.632L8.63672 945.632L8.63672 948.376L4.34126 948.376C3.96342 948.38 3.66678 948.476 3.45135 948.665C3.23591 948.857 3.1282 949.125 3.1282 949.47C3.1282 949.699 3.17625 949.896 3.27237 950.062C3.3718 950.231 3.51101 950.36 3.68999 950.45C3.87228 950.542 4.08937 950.587 4.34126 950.584Z" fill="#F8B300" fill-opacity="0.5"/>
<path d="M0.861327 939.161C0.861328 938.332 1.02539 937.623 1.35352 937.033C1.68495 936.443 2.14566 935.991 2.73562 935.676C3.32889 935.361 4.01663 935.204 4.79883 935.204C5.58102 935.204 6.2671 935.361 6.85707 935.676C7.45034 935.991 7.91104 936.443 8.23917 937.033C8.57061 937.623 8.73633 938.332 8.73633 939.161C8.73633 939.99 8.57061 940.699 8.23917 941.289C7.91104 941.879 7.45034 942.331 6.85707 942.646C6.2671 942.961 5.58102 943.118 4.79883 943.118C4.01663 943.118 3.32889 942.961 2.73562 942.646C2.14566 942.331 1.68495 941.879 1.35351 941.289C1.02539 940.699 0.861327 939.99 0.861327 939.161ZM2.88974 939.181C2.88974 939.413 2.96763 939.613 3.1234 939.782C3.27918 939.952 3.50124 940.082 3.78959 940.175C4.07795 940.268 4.42099 940.314 4.81871 940.314C5.21976 940.314 5.5628 940.268 5.84783 940.175C6.13619 940.082 6.35825 939.952 6.51403 939.782C6.6698 939.613 6.74769 939.413 6.74769 939.181C6.74769 938.936 6.6698 938.725 6.51403 938.549C6.35825 938.374 6.13619 938.24 5.84783 938.147C5.5628 938.054 5.21976 938.008 4.81871 938.008C4.42099 938.008 4.07795 938.054 3.78959 938.147C3.50124 938.24 3.27918 938.374 3.1234 938.549C2.96763 938.725 2.88974 938.936 2.88974 939.181Z" fill="#F8B300" fill-opacity="0.5"/>
<path d="M11.1816 924.861L11.1816 927.943L7.04528 929.932L7.04528 930.012L11.1816 932L11.1816 935.083L4.20153 931.344L0.999822 931.344L0.999822 928.6L4.20153 928.6L11.1816 924.861Z" fill="#F8B300" fill-opacity="0.5"/>
<path d="M0.861327 914.658C0.861328 913.83 1.02539 913.12 1.35352 912.53C1.68495 911.94 2.14566 911.488 2.73562 911.173C3.32889 910.858 4.01663 910.701 4.79883 910.701C5.58102 910.701 6.2671 910.858 6.85707 911.173C7.45034 911.488 7.91104 911.94 8.23917 912.53C8.57061 913.12 8.73633 913.83 8.73633 914.658C8.73633 915.487 8.57061 916.196 8.23917 916.786C7.91104 917.376 7.45034 917.829 6.85707 918.143C6.2671 918.458 5.58102 918.616 4.79883 918.616C4.01663 918.616 3.32889 918.458 2.73562 918.143C2.14566 917.829 1.68495 917.376 1.35351 916.786C1.02539 916.196 0.861327 915.487 0.861327 914.658ZM2.88974 914.678C2.88974 914.91 2.96763 915.111 3.1234 915.28C3.27918 915.449 3.50124 915.58 3.78959 915.673C4.07795 915.765 4.42099 915.812 4.81871 915.812C5.21976 915.812 5.5628 915.765 5.84783 915.673C6.13619 915.58 6.35825 915.449 6.51403 915.28C6.6698 915.111 6.74769 914.91 6.74769 914.678C6.74769 914.433 6.6698 914.222 6.51403 914.047C6.35825 913.871 6.13619 913.737 5.84783 913.644C5.5628 913.551 5.21976 913.505 4.81871 913.505C4.42099 913.505 4.07795 913.551 3.78959 913.644C3.50124 913.737 3.27918 913.871 3.1234 914.047C2.96763 914.222 2.88974 914.433 2.88974 914.678Z" fill="#F8B300" fill-opacity="0.5"/>
<path d="M7.82031 905.337C7.99597 905.294 8.15009 905.226 8.28267 905.133C8.41856 905.041 8.53291 904.925 8.62571 904.785C8.72183 904.65 8.79309 904.49 8.83949 904.308C8.8892 904.129 8.91406 903.932 8.91406 903.717C8.91406 903.253 8.80303 902.857 8.58097 902.528C8.3589 902.204 8.03906 901.955 7.62145 901.783C7.20383 901.614 6.70005 901.529 6.11009 901.529C5.51349 901.529 5.00308 901.61 4.57883 901.773C4.15459 901.935 3.82978 902.177 3.6044 902.499C3.37902 902.82 3.26634 903.219 3.26634 903.697C3.26634 904.118 3.32765 904.467 3.45028 904.746C3.57292 905.027 3.74692 905.238 3.9723 905.377C4.19768 905.516 4.46283 905.586 4.76776 905.586L4.71804 906.063L4.71804 903.736L6.68679 903.736L6.68679 908.251L5.27486 908.251C4.34683 908.251 3.55303 908.053 2.89347 907.659C2.23722 907.268 1.73343 906.728 1.3821 906.038C1.03409 905.352 0.860084 904.565 0.860084 903.677C0.860084 902.686 1.07055 901.816 1.49148 901.067C1.91241 900.318 2.51231 899.733 3.29119 899.312C4.07008 898.894 4.99645 898.685 6.07031 898.685C6.91217 898.685 7.65791 898.813 8.30753 899.068C8.95715 899.327 9.50568 899.685 9.95312 900.142C10.4039 900.599 10.7436 901.128 10.9723 901.728C11.2043 902.328 11.3203 902.971 11.3203 903.657C11.3203 904.26 11.2341 904.82 11.0618 905.337C10.8928 905.858 10.6508 906.317 10.3359 906.714C10.0244 907.115 9.65483 907.439 9.22727 907.684C8.79972 907.929 8.33073 908.078 7.82031 908.131L7.82031 905.337Z" fill="#F8B300" fill-opacity="0.5"/>
<path d="M8.11133 889.669C8.11133 890.005 8.02733 890.304 7.85933 890.565C7.70066 890.836 7.48599 891.05 7.21533 891.209C6.95399 891.377 6.65533 891.461 6.31933 891.461C5.99266 891.461 5.69399 891.377 5.42333 891.209C5.15266 891.05 4.93333 890.836 4.76533 890.565C4.60666 890.304 4.52733 890.005 4.52733 889.669C4.52733 889.342 4.60666 889.044 4.76533 888.773C4.93333 888.502 5.15266 888.283 5.42333 888.115C5.69399 887.956 5.99266 887.877 6.31933 887.877C6.65533 887.877 6.95399 887.956 7.21533 888.115C7.48599 888.283 7.70066 888.502 7.85933 888.773C8.02733 889.044 8.11133 889.342 8.11133 889.669Z" fill="#F8B300" fill-opacity="0.5"/>
<path d="M6.1511 880.715L6.1511 878.189C6.30688 878.176 6.44111 878.121 6.5538 878.025C6.66649 877.929 6.75266 877.805 6.81232 877.652C6.8753 877.503 6.90678 877.337 6.90678 877.155C6.90678 876.92 6.8637 876.717 6.77752 876.548C6.69135 876.379 6.56871 876.297 6.40962 876.3C6.29693 876.297 6.19253 876.345 6.09641 876.444C6.0003 876.547 5.92572 876.744 5.87269 877.036L5.59428 878.587C5.45176 879.369 5.21147 879.951 4.8734 880.332C4.53865 880.716 4.08955 880.91 3.5261 880.914C2.98254 880.91 2.51024 880.748 2.1092 880.426C1.71147 880.108 1.40323 879.672 1.18448 879.119C0.969045 878.569 0.861327 877.941 0.861327 877.235C0.861328 876.068 1.09996 875.155 1.57724 874.495C2.05451 873.839 2.68424 873.473 3.46644 873.396L3.46644 876.121C3.22449 876.157 3.03723 876.277 2.90465 876.479C2.77539 876.684 2.71076 876.943 2.71076 877.254C2.71076 877.506 2.75385 877.713 2.84002 877.876C2.9262 878.042 3.04883 878.126 3.20792 878.129C3.35375 878.126 3.46976 878.053 3.55593 877.911C3.6421 877.771 3.71171 877.553 3.76474 877.254L4.00337 875.902C4.13926 875.123 4.39779 874.54 4.77894 874.152C5.1601 873.764 5.65063 873.572 6.25053 873.575C6.78084 873.572 7.22994 873.711 7.59783 873.993C7.96905 874.278 8.25077 874.684 8.443 875.211C8.63855 875.741 8.73633 876.369 8.73633 877.095C8.73633 878.199 8.50763 879.069 8.05025 879.705C7.59286 880.345 6.95981 880.682 6.1511 880.715Z" fill="#F8B300" fill-opacity="0.5"/>
<path d="M1.00053 866.264L8.6369 866.264L8.6369 868.929L7.18519 868.929L7.18519 869.008C7.72212 869.148 8.11488 869.368 8.36346 869.67C8.61204 869.975 8.73633 870.331 8.73633 870.739C8.73633 870.858 8.72638 870.976 8.7065 871.092C8.68993 871.211 8.66507 871.325 8.63192 871.435L6.29031 871.435C6.33671 871.299 6.37151 871.131 6.39471 870.932C6.41791 870.734 6.42951 870.563 6.42951 870.42C6.42951 870.152 6.36819 869.91 6.24556 869.695C6.12624 869.482 5.95721 869.315 5.73846 869.192C5.52302 869.07 5.26947 869.008 4.97781 869.008L1.00053 869.008L1.00053 866.264Z" fill="#F8B300" fill-opacity="0.5"/>
<path d="M4.34126 860.724L8.63672 860.724L8.63672 863.468L1.00035 863.468L1.00035 860.863L2.45206 860.863L2.45206 860.784C1.96484 860.618 1.58369 860.328 1.30859 859.914C1.03681 859.499 0.900923 859.007 0.900923 858.437C0.900923 857.904 1.02356 857.436 1.26882 857.035C1.51409 856.637 1.85215 856.328 2.28302 856.106C2.7139 855.887 3.20774 855.776 3.76456 855.772L8.63672 855.772L8.63672 858.517L4.34126 858.517C3.96342 858.52 3.66678 858.616 3.45135 858.805C3.23591 858.997 3.1282 859.266 3.1282 859.611C3.1282 859.839 3.17625 860.036 3.27237 860.202C3.3718 860.371 3.51101 860.5 3.68999 860.59C3.87228 860.683 4.08937 860.727 4.34126 860.724Z" fill="#F8B300" fill-opacity="0.5"/>
<path d="M0.861327 849.301C0.861328 848.473 1.02539 847.763 1.35352 847.174C1.68495 846.584 2.14566 846.131 2.73562 845.816C3.32889 845.501 4.01663 845.344 4.79883 845.344C5.58102 845.344 6.2671 845.501 6.85707 845.816C7.45034 846.131 7.91104 846.584 8.23917 847.174C8.57061 847.763 8.73633 848.473 8.73633 849.301C8.73633 850.13 8.57061 850.839 8.23917 851.429C7.91104 852.019 7.45034 852.472 6.85707 852.786C6.2671 853.101 5.58102 853.259 4.79883 853.259C4.01663 853.259 3.32889 853.101 2.73562 852.786C2.14566 852.472 1.68495 852.019 1.35351 851.429C1.02539 850.839 0.861327 850.13 0.861327 849.301ZM2.88974 849.321C2.88974 849.553 2.96763 849.754 3.1234 849.923C3.27918 850.092 3.50124 850.223 3.78959 850.316C4.07795 850.408 4.42099 850.455 4.81871 850.455C5.21976 850.455 5.5628 850.408 5.84783 850.316C6.13619 850.223 6.35825 850.092 6.51403 849.923C6.6698 849.754 6.74769 849.553 6.74769 849.321C6.74769 849.076 6.6698 848.866 6.51403 848.69C6.35825 848.514 6.13619 848.38 5.84783 848.287C5.5628 848.194 5.21976 848.148 4.81871 848.148C4.42099 848.148 4.07795 848.194 3.78959 848.287C3.50124 848.38 3.27918 848.514 3.1234 848.69C2.96763 848.866 2.88974 849.076 2.88974 849.321Z" fill="#F8B300" fill-opacity="0.5"/>
<path d="M11.1816 835.001L11.1816 838.084L7.04528 840.072L7.04528 840.152L11.1816 842.14L11.1816 845.223L4.20153 841.484L0.999822 841.484L0.999822 838.74L4.20153 838.74L11.1816 835.001Z" fill="#F8B300" fill-opacity="0.5"/>
<path d="M0.861327 824.798C0.861328 823.97 1.02539 823.261 1.35352 822.671C1.68495 822.081 2.14566 821.628 2.73562 821.313C3.32889 820.998 4.01663 820.841 4.79883 820.841C5.58102 820.841 6.2671 820.998 6.85707 821.313C7.45034 821.628 7.91104 822.081 8.23917 822.671C8.57061 823.261 8.73633 823.97 8.73633 824.798C8.73633 825.627 8.57061 826.336 8.23917 826.926C7.91104 827.516 7.45034 827.969 6.85707 828.284C6.2671 828.598 5.58102 828.756 4.79883 828.756C4.01663 828.756 3.32889 828.598 2.73562 828.284C2.14566 827.969 1.68495 827.516 1.35351 826.926C1.02539 826.336 0.861327 825.627 0.861327 824.798ZM2.88974 824.818C2.88974 825.05 2.96763 825.251 3.1234 825.42C3.27918 825.589 3.50124 825.72 3.78959 825.813C4.07795 825.905 4.42099 825.952 4.81871 825.952C5.21976 825.952 5.5628 825.905 5.84783 825.813C6.13619 825.72 6.35825 825.589 6.51403 825.42C6.6698 825.251 6.74769 825.05 6.74769 824.818C6.74769 824.573 6.6698 824.363 6.51403 824.187C6.35825 824.011 6.13619 823.877 5.84783 823.784C5.5628 823.691 5.21976 823.645 4.81871 823.645C4.42099 823.645 4.07795 823.691 3.78959 823.784C3.50124 823.877 3.27918 824.011 3.1234 824.187C2.96763 824.363 2.88974 824.573 2.88974 824.818Z" fill="#F8B300" fill-opacity="0.5"/>
<path d="M7.82031 815.478C7.99597 815.435 8.15009 815.367 8.28267 815.274C8.41856 815.181 8.53291 815.065 8.62571 814.926C8.72183 814.79 8.79309 814.631 8.83949 814.449C8.8892 814.27 8.91406 814.072 8.91406 813.857C8.91406 813.393 8.80303 812.997 8.58097 812.669C8.3589 812.344 8.03906 812.095 7.62145 811.923C7.20383 811.754 6.70005 811.669 6.11009 811.669C5.51349 811.669 5.00308 811.751 4.57883 811.913C4.15459 812.075 3.82978 812.317 3.6044 812.639C3.37902 812.96 3.26634 813.36 3.26634 813.837C3.26634 814.258 3.32765 814.608 3.45028 814.886C3.57292 815.168 3.74692 815.378 3.9723 815.517C4.19768 815.657 4.46283 815.726 4.76776 815.726L4.71804 816.204L4.71804 813.877L6.68679 813.877L6.68679 818.391L5.27486 818.391C4.34683 818.391 3.55303 818.194 2.89347 817.799C2.23722 817.408 1.73343 816.868 1.3821 816.179C1.03409 815.493 0.860084 814.705 0.860084 813.817C0.860084 812.826 1.07055 811.956 1.49148 811.207C1.91241 810.458 2.51231 809.873 3.29119 809.452C4.07008 809.035 4.99645 808.826 6.07031 808.826C6.91217 808.826 7.65791 808.953 8.30753 809.208C8.95715 809.467 9.50568 809.825 9.95312 810.282C10.4039 810.74 10.7436 811.268 10.9723 811.868C11.2043 812.468 11.3203 813.111 11.3203 813.797C11.3203 814.401 11.2341 814.961 11.0618 815.478C10.8928 815.998 10.6508 816.457 10.3359 816.855C10.0244 817.256 9.65483 817.579 9.22727 817.824C8.79972 818.07 8.33073 818.219 7.82031 818.272L7.82031 815.478Z" fill="#F8B300" fill-opacity="0.5"/>
<path d="M8.11133 799.809C8.11133 800.145 8.02733 800.444 7.85933 800.705C7.70066 800.976 7.48599 801.19 7.21533 801.349C6.95399 801.517 6.65533 801.601 6.31933 801.601C5.99266 801.601 5.69399 801.517 5.42333 801.349C5.15266 801.19 4.93333 800.976 4.76533 800.705C4.60666 800.444 4.52733 800.145 4.52733 799.809C4.52733 799.482 4.60666 799.184 4.76533 798.913C4.93333 798.642 5.15266 798.423 5.42333 798.255C5.69399 798.096 5.99266 798.017 6.31933 798.017C6.65533 798.017 6.95399 798.096 7.21533 798.255C7.48599 798.423 7.70066 798.642 7.85933 798.913C8.02733 799.184 8.11133 799.482 8.11133 799.809Z" fill="#F8B300" fill-opacity="0.5"/>
<path d="M6.1511 790.855L6.1511 788.329C6.30688 788.316 6.44111 788.261 6.5538 788.165C6.66649 788.069 6.75266 787.945 6.81232 787.792C6.8753 787.643 6.90678 787.477 6.90678 787.295C6.90678 787.06 6.8637 786.858 6.77752 786.689C6.69135 786.52 6.56871 786.437 6.40962 786.44C6.29693 786.437 6.19253 786.485 6.09641 786.584C6.0003 786.687 5.92572 786.884 5.87269 787.176L5.59428 788.727C5.45176 789.509 5.21147 790.091 4.8734 790.472C4.53865 790.856 4.08955 791.05 3.5261 791.054C2.98254 791.05 2.51024 790.888 2.1092 790.566C1.71147 790.248 1.40323 789.812 1.18448 789.259C0.969045 788.709 0.861327 788.081 0.861327 787.375C0.861328 786.208 1.09996 785.295 1.57724 784.635C2.05451 783.979 2.68424 783.613 3.46644 783.537L3.46644 786.261C3.22449 786.298 3.03723 786.417 2.90465 786.619C2.77539 786.825 2.71076 787.083 2.71076 787.395C2.71076 787.646 2.75385 787.854 2.84002 788.016C2.9262 788.182 3.04883 788.266 3.20792 788.27C3.35375 788.266 3.46976 788.193 3.55593 788.051C3.6421 787.912 3.71171 787.693 3.76474 787.395L4.00337 786.042C4.13926 785.263 4.39779 784.68 4.77894 784.292C5.1601 783.905 5.65063 783.712 6.25053 783.716C6.78084 783.712 7.22994 783.851 7.59783 784.133C7.96905 784.418 8.25077 784.824 8.443 785.351C8.63855 785.882 8.73633 786.51 8.73633 787.235C8.73633 788.339 8.50763 789.209 8.05025 789.846C7.59286 790.485 6.95981 790.822 6.1511 790.855Z" fill="#F8B300" fill-opacity="0.5"/>
<path d="M1.00053 776.404L8.6369 776.404L8.6369 779.069L7.18519 779.069L7.18519 779.149C7.72212 779.288 8.11488 779.508 8.36346 779.81C8.61204 780.115 8.73633 780.471 8.73633 780.879C8.73633 780.998 8.72638 781.116 8.7065 781.232C8.68993 781.351 8.66507 781.465 8.63192 781.575L6.29031 781.575C6.33671 781.439 6.37151 781.271 6.39471 781.073C6.41791 780.874 6.42951 780.703 6.42951 780.561C6.42951 780.292 6.36819 780.05 6.24556 779.835C6.12624 779.623 5.95721 779.455 5.73846 779.333C5.52302 779.21 5.26947 779.149 4.97781 779.149L1.00053 779.149L1.00053 776.404Z" fill="#F8B300" fill-opacity="0.5"/>
<path d="M4.34126 770.864L8.63672 770.864L8.63672 773.609L1.00035 773.609L1.00035 771.003L2.45206 771.003L2.45206 770.924C1.96484 770.758 1.58369 770.468 1.30859 770.054C1.03681 769.64 0.900923 769.147 0.900923 768.577C0.900923 768.044 1.02356 767.576 1.26882 767.175C1.51409 766.778 1.85215 766.468 2.28302 766.246C2.7139 766.027 3.20774 765.916 3.76456 765.913L8.63672 765.913L8.63672 768.657L4.34126 768.657C3.96342 768.66 3.66678 768.756 3.45135 768.945C3.23591 769.137 3.1282 769.406 3.1282 769.751C3.1282 769.979 3.17625 770.177 3.27237 770.342C3.3718 770.511 3.51101 770.641 3.68999 770.73C3.87228 770.823 4.08937 770.868 4.34126 770.864Z" fill="#F8B300" fill-opacity="0.5"/>
<path d="M0.861327 759.442C0.861328 758.613 1.02539 757.904 1.35352 757.314C1.68495 756.724 2.14566 756.271 2.73562 755.956C3.32889 755.642 4.01663 755.484 4.79883 755.484C5.58102 755.484 6.2671 755.642 6.85707 755.956C7.45034 756.271 7.91104 756.724 8.23917 757.314C8.57061 757.904 8.73633 758.613 8.73633 759.442C8.73633 760.27 8.57061 760.979 8.23917 761.569C7.91104 762.159 7.45034 762.612 6.85707 762.927C6.2671 763.242 5.58102 763.399 4.79883 763.399C4.01663 763.399 3.32889 763.242 2.73562 762.927C2.14566 762.612 1.68495 762.159 1.35351 761.569C1.02539 760.979 0.861327 760.27 0.861327 759.442ZM2.88974 759.461C2.88974 759.693 2.96763 759.894 3.1234 760.063C3.27918 760.232 3.50124 760.363 3.78959 760.456C4.07795 760.549 4.42099 760.595 4.81871 760.595C5.21976 760.595 5.5628 760.549 5.84783 760.456C6.13619 760.363 6.35825 760.232 6.51403 760.063C6.6698 759.894 6.74769 759.693 6.74769 759.461C6.74769 759.216 6.6698 759.006 6.51403 758.83C6.35825 758.654 6.13619 758.52 5.84783 758.427C5.5628 758.335 5.21976 758.288 4.81871 758.288C4.42099 758.288 4.07795 758.335 3.78959 758.427C3.50124 758.52 3.27918 758.654 3.1234 758.83C2.96763 759.006 2.88974 759.216 2.88974 759.461Z" fill="#F8B300" fill-opacity="0.5"/>
<path d="M11.1816 745.142L11.1816 748.224L7.04528 750.213L7.04528 750.292L11.1816 752.281L11.1816 755.363L4.20153 751.625L0.999822 751.625L0.999822 748.88L4.20153 748.88L11.1816 745.142Z" fill="#F8B300" fill-opacity="0.5"/>
<path d="M0.861327 734.939C0.861328 734.11 1.02539 733.401 1.35352 732.811C1.68495 732.221 2.14566 731.769 2.73562 731.454C3.32889 731.139 4.01663 730.981 4.79883 730.981C5.58102 730.981 6.2671 731.139 6.85707 731.454C7.45034 731.769 7.91104 732.221 8.23917 732.811C8.57061 733.401 8.73633 734.11 8.73633 734.939C8.73633 735.767 8.57061 736.477 8.23917 737.067C7.91104 737.657 7.45034 738.109 6.85707 738.424C6.2671 738.739 5.58102 738.896 4.79883 738.896C4.01663 738.896 3.32889 738.739 2.73562 738.424C2.14566 738.109 1.68495 737.657 1.35351 737.067C1.02539 736.477 0.861327 735.767 0.861327 734.939ZM2.88974 734.959C2.88974 735.191 2.96763 735.391 3.1234 735.56C3.27918 735.729 3.50124 735.86 3.78959 735.953C4.07795 736.046 4.42099 736.092 4.81871 736.092C5.21976 736.092 5.5628 736.046 5.84783 735.953C6.13619 735.86 6.35825 735.729 6.51403 735.56C6.6698 735.391 6.74769 735.191 6.74769 734.959C6.74769 734.713 6.6698 734.503 6.51403 734.327C6.35825 734.152 6.13619 734.017 5.84783 733.925C5.5628 733.832 5.21976 733.785 4.81871 733.785C4.42099 733.785 4.07795 733.832 3.78959 733.925C3.50124 734.017 3.27918 734.152 3.1234 734.327C2.96763 734.503 2.88974 734.713 2.88974 734.959Z" fill="#F8B300" fill-opacity="0.5"/>
<path d="M7.82031 725.618C7.99597 725.575 8.15009 725.507 8.28267 725.414C8.41856 725.321 8.53291 725.205 8.62571 725.066C8.72183 724.93 8.79309 724.771 8.83949 724.589C8.8892 724.41 8.91406 724.213 8.91406 723.997C8.91406 723.533 8.80303 723.137 8.58097 722.809C8.3589 722.484 8.03906 722.236 7.62145 722.063C7.20383 721.894 6.70005 721.81 6.11009 721.81C5.51349 721.81 5.00308 721.891 4.57883 722.053C4.15459 722.216 3.82978 722.458 3.6044 722.779C3.37902 723.101 3.26634 723.5 3.26634 723.977C3.26634 724.398 3.32765 724.748 3.45028 725.026C3.57292 725.308 3.74692 725.518 3.9723 725.658C4.19768 725.797 4.46283 725.866 4.76776 725.866L4.71804 726.344L4.71804 724.017L6.68679 724.017L6.68679 728.531L5.27486 728.531C4.34683 728.531 3.55303 728.334 2.89347 727.94C2.23722 727.548 1.73343 727.008 1.3821 726.319C1.03409 725.633 0.860084 724.846 0.860084 723.957C0.860084 722.966 1.07055 722.096 1.49148 721.347C1.91241 720.598 2.51231 720.013 3.29119 719.592C4.07008 719.175 4.99645 718.966 6.07031 718.966C6.91217 718.966 7.65791 719.093 8.30753 719.349C8.95715 719.607 9.50568 719.965 9.95312 720.423C10.4039 720.88 10.7436 721.409 10.9723 722.008C11.2043 722.608 11.3203 723.251 11.3203 723.937C11.3203 724.541 11.2341 725.101 11.0618 725.618C10.8928 726.138 10.6508 726.597 10.3359 726.995C10.0244 727.396 9.65483 727.719 9.22727 727.964C8.79972 728.21 8.33073 728.359 7.82031 728.412L7.82031 725.618Z" fill="#F8B300" fill-opacity="0.5"/>
<path d="M8.11133 709.949C8.11133 710.285 8.02733 710.584 7.85933 710.845C7.70066 711.116 7.48599 711.331 7.21533 711.489C6.95399 711.657 6.65533 711.741 6.31933 711.741C5.99266 711.741 5.69399 711.657 5.42333 711.489C5.15266 711.331 4.93333 711.116 4.76533 710.845C4.60666 710.584 4.52733 710.285 4.52733 709.949C4.52733 709.623 4.60666 709.324 4.76533 709.053C4.93333 708.783 5.15266 708.563 5.42333 708.395C5.69399 708.237 5.99266 708.157 6.31933 708.157C6.65533 708.157 6.95399 708.237 7.21533 708.395C7.48599 708.563 7.70066 708.783 7.85933 709.053C8.02733 709.324 8.11133 709.623 8.11133 709.949Z" fill="#F8B300" fill-opacity="0.5"/>
<path d="M6.1511 700.995L6.1511 698.47C6.30688 698.456 6.44111 698.402 6.5538 698.306C6.66649 698.209 6.75266 698.085 6.81232 697.933C6.8753 697.784 6.90678 697.618 6.90678 697.435C6.90678 697.2 6.8637 696.998 6.77752 696.829C6.69135 696.66 6.56871 696.577 6.40962 696.58C6.29693 696.577 6.19253 696.625 6.09641 696.725C6.0003 696.827 5.92572 697.024 5.87269 697.316L5.59428 698.867C5.45176 699.65 5.21147 700.231 4.8734 700.612C4.53865 700.997 4.08955 701.191 3.5261 701.194C2.98254 701.191 2.51024 701.028 2.1092 700.707C1.71147 700.389 1.40323 699.953 1.18448 699.399C0.969045 698.849 0.861327 698.221 0.861327 697.515C0.861328 696.348 1.09996 695.435 1.57724 694.776C2.05451 694.119 2.68424 693.753 3.46644 693.677L3.46644 696.401C3.22449 696.438 3.03723 696.557 2.90465 696.759C2.77539 696.965 2.71076 697.223 2.71076 697.535C2.71076 697.787 2.75385 697.994 2.84002 698.156C2.9262 698.322 3.04883 698.407 3.20792 698.41C3.35375 698.407 3.46976 698.334 3.55593 698.191C3.6421 698.052 3.71171 697.833 3.76474 697.535L4.00337 696.183C4.13926 695.404 4.39779 694.82 4.77894 694.433C5.1601 694.045 5.65063 693.853 6.25053 693.856C6.78084 693.853 7.22994 693.992 7.59783 694.274C7.96905 694.559 8.25077 694.965 8.443 695.492C8.63855 696.022 8.73633 696.65 8.73633 697.376C8.73633 698.48 8.50763 699.35 8.05025 699.986C7.59286 700.626 6.95981 700.962 6.1511 700.995Z" fill="#F8B300" fill-opacity="0.5"/>
<path d="M1.00053 686.545L8.6369 686.545L8.6369 689.209L7.18519 689.209L7.18519 689.289C7.72212 689.428 8.11488 689.649 8.36346 689.95C8.61204 690.255 8.73633 690.611 8.73633 691.019C8.73633 691.138 8.72638 691.256 8.7065 691.372C8.68993 691.491 8.66507 691.606 8.63192 691.715L6.29031 691.715C6.33671 691.579 6.37151 691.412 6.39471 691.213C6.41791 691.014 6.42951 690.843 6.42951 690.701C6.42951 690.432 6.36819 690.19 6.24556 689.975C6.12624 689.763 5.95721 689.596 5.73846 689.473C5.52302 689.35 5.26947 689.289 4.97781 689.289L1.00053 689.289L1.00053 686.545Z" fill="#F8B300" fill-opacity="0.5"/>
<path d="M4.34126 681.004L8.63672 681.004L8.63672 683.749L1.00035 683.749L1.00035 681.144L2.45206 681.144L2.45206 681.064C1.96484 680.898 1.58369 680.608 1.30859 680.194C1.03681 679.78 0.900923 679.288 0.900923 678.717C0.900923 678.184 1.02356 677.717 1.26882 677.315C1.51409 676.918 1.85215 676.608 2.28302 676.386C2.7139 676.167 3.20774 676.056 3.76456 676.053L8.63672 676.053L8.63672 678.797L4.34126 678.797C3.96342 678.8 3.66678 678.896 3.45135 679.085C3.23591 679.278 3.1282 679.546 3.1282 679.891C3.1282 680.12 3.17625 680.317 3.27237 680.482C3.3718 680.651 3.51101 680.781 3.68999 680.87C3.87228 680.963 4.08937 681.008 4.34126 681.004Z" fill="#F8B300" fill-opacity="0.5"/>
<path d="M0.861327 669.582C0.861328 668.753 1.02539 668.044 1.35352 667.454C1.68495 666.864 2.14566 666.411 2.73562 666.097C3.32889 665.782 4.01663 665.624 4.79883 665.624C5.58102 665.624 6.2671 665.782 6.85707 666.097C7.45034 666.411 7.91104 666.864 8.23917 667.454C8.57061 668.044 8.73633 668.753 8.73633 669.582C8.73633 670.41 8.57061 671.12 8.23917 671.71C7.91104 672.299 7.45034 672.752 6.85707 673.067C6.2671 673.382 5.58102 673.539 4.79883 673.539C4.01663 673.539 3.32889 673.382 2.73562 673.067C2.14566 672.752 1.68495 672.299 1.35351 671.71C1.02539 671.12 0.861327 670.41 0.861327 669.582ZM2.88974 669.602C2.88974 669.834 2.96763 670.034 3.1234 670.203C3.27918 670.372 3.50124 670.503 3.78959 670.596C4.07795 670.689 4.42099 670.735 4.81871 670.735C5.21976 670.735 5.5628 670.689 5.84783 670.596C6.13619 670.503 6.35825 670.372 6.51403 670.203C6.6698 670.034 6.74769 669.834 6.74769 669.602C6.74769 669.356 6.6698 669.146 6.51403 668.97C6.35825 668.794 6.13619 668.66 5.84783 668.567C5.5628 668.475 5.21976 668.428 4.81871 668.428C4.42099 668.428 4.07795 668.475 3.78959 668.567C3.50124 668.66 3.27918 668.794 3.1234 668.97C2.96763 669.146 2.88974 669.356 2.88974 669.602Z" fill="#F8B300" fill-opacity="0.5"/>
<path d="M11.1816 655.282L11.1816 658.364L7.04528 660.353L7.04528 660.432L11.1816 662.421L11.1816 665.503L4.20153 661.765L0.999822 661.765L0.999822 659.02L4.20153 659.02L11.1816 655.282Z" fill="#F8B300" fill-opacity="0.5"/>
<path d="M0.861327 645.079C0.861328 644.25 1.02539 643.541 1.35352 642.951C1.68495 642.361 2.14566 641.909 2.73562 641.594C3.32889 641.279 4.01663 641.122 4.79883 641.122C5.58102 641.122 6.2671 641.279 6.85707 641.594C7.45034 641.909 7.91104 642.361 8.23917 642.951C8.57061 643.541 8.73633 644.25 8.73633 645.079C8.73633 645.908 8.57061 646.617 8.23917 647.207C7.91104 647.797 7.45034 648.249 6.85707 648.564C6.2671 648.879 5.58102 649.036 4.79883 649.036C4.01663 649.036 3.32889 648.879 2.73562 648.564C2.14566 648.249 1.68495 647.797 1.35351 647.207C1.02539 646.617 0.861327 645.908 0.861327 645.079ZM2.88974 645.099C2.88974 645.331 2.96763 645.531 3.1234 645.7C3.27918 645.869 3.50124 646 3.78959 646.093C4.07795 646.186 4.42099 646.232 4.81871 646.232C5.21976 646.232 5.5628 646.186 5.84783 646.093C6.13619 646 6.35825 645.869 6.51403 645.7C6.6698 645.531 6.74769 645.331 6.74769 645.099C6.74769 644.854 6.6698 644.643 6.51403 644.467C6.35825 644.292 6.13619 644.158 5.84783 644.065C5.5628 643.972 5.21976 643.926 4.81871 643.926C4.42099 643.926 4.07795 643.972 3.78959 644.065C3.50124 644.158 3.27918 644.292 3.1234 644.467C2.96763 644.643 2.88974 644.854 2.88974 645.099Z" fill="#F8B300" fill-opacity="0.5"/>
<path d="M7.82031 635.758C7.99597 635.715 8.15009 635.647 8.28267 635.554C8.41856 635.461 8.53291 635.345 8.62571 635.206C8.72183 635.07 8.79309 634.911 8.83949 634.729C8.8892 634.55 8.91406 634.353 8.91406 634.137C8.91406 633.673 8.80303 633.277 8.58097 632.949C8.3589 632.624 8.03906 632.376 7.62145 632.203C7.20383 632.034 6.70005 631.95 6.11009 631.95C5.51349 631.95 5.00308 632.031 4.57883 632.193C4.15459 632.356 3.82978 632.598 3.6044 632.919C3.37902 633.241 3.26634 633.64 3.26634 634.117C3.26634 634.538 3.32765 634.888 3.45028 635.166C3.57292 635.448 3.74692 635.659 3.9723 635.798C4.19768 635.937 4.46283 636.007 4.76776 636.007L4.71804 636.484L4.71804 634.157L6.68679 634.157L6.68679 638.671L5.27486 638.671C4.34683 638.671 3.55303 638.474 2.89347 638.08C2.23722 637.689 1.73343 637.148 1.3821 636.459C1.03409 635.773 0.860084 634.986 0.860084 634.097C0.860084 633.106 1.07055 632.236 1.49148 631.487C1.91241 630.738 2.51231 630.153 3.29119 629.732C4.07008 629.315 4.99645 629.106 6.07031 629.106C6.91217 629.106 7.65791 629.234 8.30753 629.489C8.95715 629.747 9.50568 630.105 9.95312 630.563C10.4039 631.02 10.7436 631.549 10.9723 632.149C11.2043 632.749 11.3203 633.391 11.3203 634.078C11.3203 634.681 11.2341 635.241 11.0618 635.758C10.8928 636.278 10.6508 636.737 10.3359 637.135C10.0244 637.536 9.65483 637.859 9.22727 638.105C8.79972 638.35 8.33073 638.499 7.82031 638.552L7.82031 635.758Z" fill="#F8B300" fill-opacity="0.5"/>
<path d="M8.11133 620.09C8.11133 620.426 8.02733 620.724 7.85933 620.986C7.70066 621.256 7.48599 621.471 7.21533 621.63C6.95399 621.798 6.65533 621.882 6.31933 621.882C5.99266 621.882 5.69399 621.798 5.42333 621.63C5.15266 621.471 4.93333 621.256 4.76533 620.986C4.60666 620.724 4.52733 620.426 4.52733 620.09C4.52733 619.763 4.60666 619.464 4.76533 619.194C4.93333 618.923 5.15266 618.704 5.42333 618.536C5.69399 618.377 5.99266 618.298 6.31933 618.298C6.65533 618.298 6.95399 618.377 7.21533 618.536C7.48599 618.704 7.70066 618.923 7.85933 619.194C8.02733 619.464 8.11133 619.763 8.11133 620.09Z" fill="#F8B300" fill-opacity="0.5"/>
<path d="M6.1511 611.135L6.1511 608.61C6.30688 608.596 6.44111 608.542 6.5538 608.446C6.66649 608.35 6.75266 608.225 6.81232 608.073C6.8753 607.924 6.90678 607.758 6.90678 607.576C6.90678 607.34 6.8637 607.138 6.77752 606.969C6.69135 606.8 6.56871 606.717 6.40962 606.721C6.29693 606.717 6.19253 606.765 6.09641 606.865C6.0003 606.967 5.92572 607.165 5.87269 607.456L5.59428 609.007C5.45176 609.79 5.21147 610.371 4.8734 610.753C4.53865 611.137 4.08955 611.331 3.5261 611.334C2.98254 611.331 2.51024 611.168 2.1092 610.847C1.71147 610.529 1.40323 610.093 1.18448 609.539C0.969045 608.989 0.861327 608.361 0.861327 607.655C0.861328 606.489 1.09996 605.575 1.57724 604.916C2.05451 604.26 2.68424 603.893 3.46644 603.817L3.46644 606.542C3.22449 606.578 3.03723 606.697 2.90465 606.9C2.77539 607.105 2.71076 607.363 2.71076 607.675C2.71076 607.927 2.75385 608.134 2.84002 608.297C2.9262 608.462 3.04883 608.547 3.20792 608.55C3.35375 608.547 3.46976 608.474 3.55593 608.331C3.6421 608.192 3.71171 607.973 3.76474 607.675L4.00337 606.323C4.13926 605.544 4.39779 604.961 4.77894 604.573C5.1601 604.185 5.65063 603.993 6.25053 603.996C6.78084 603.993 7.22994 604.132 7.59783 604.414C7.96905 604.699 8.25077 605.105 8.443 605.632C8.63855 606.162 8.73633 606.79 8.73633 607.516C8.73633 608.62 8.50763 609.49 8.05025 610.126C7.59286 610.766 6.95981 611.102 6.1511 611.135Z" fill="#F8B300" fill-opacity="0.5"/>
<path d="M1.00053 596.685L8.6369 596.685L8.6369 599.35L7.18519 599.35L7.18519 599.429C7.72212 599.568 8.11488 599.789 8.36346 600.09C8.61204 600.395 8.73633 600.752 8.73633 601.159C8.73633 601.279 8.72638 601.396 8.7065 601.512C8.68993 601.632 8.66507 601.746 8.63192 601.855L6.29031 601.855C6.33671 601.719 6.37151 601.552 6.39471 601.353C6.41791 601.154 6.42951 600.984 6.42951 600.841C6.42951 600.573 6.36819 600.331 6.24556 600.115C6.12624 599.903 5.95721 599.736 5.73846 599.613C5.52302 599.49 5.26947 599.429 4.97781 599.429L1.00053 599.429L1.00053 596.685Z" fill="#F8B300" fill-opacity="0.5"/>
<path d="M4.34126 591.145L8.63672 591.145L8.63672 593.889L1.00035 593.889L1.00035 591.284L2.45206 591.284L2.45206 591.204C1.96484 591.039 1.58369 590.749 1.30859 590.334C1.03681 589.92 0.900923 589.428 0.900923 588.858C0.900923 588.324 1.02356 587.857 1.26882 587.456C1.51409 587.058 1.85215 586.748 2.28302 586.526C2.7139 586.307 3.20774 586.196 3.76456 586.193L8.63672 586.193L8.63672 588.937L4.34126 588.937C3.96342 588.941 3.66678 589.037 3.45135 589.226C3.23591 589.418 3.1282 589.686 3.1282 590.031C3.1282 590.26 3.17625 590.457 3.27237 590.623C3.3718 590.792 3.51101 590.921 3.68999 591.011C3.87228 591.103 4.08937 591.148 4.34126 591.145Z" fill="#F8B300" fill-opacity="0.5"/>
<path d="M0.861327 579.722C0.861328 578.893 1.02539 578.184 1.35352 577.594C1.68495 577.004 2.14566 576.552 2.73562 576.237C3.32889 575.922 4.01663 575.765 4.79883 575.765C5.58102 575.765 6.2671 575.922 6.85707 576.237C7.45034 576.552 7.91104 577.004 8.23917 577.594C8.57061 578.184 8.73633 578.893 8.73633 579.722C8.73633 580.551 8.57061 581.26 8.23917 581.85C7.91104 582.44 7.45034 582.892 6.85707 583.207C6.2671 583.522 5.58102 583.679 4.79883 583.679C4.01663 583.679 3.32889 583.522 2.73562 583.207C2.14566 582.892 1.68495 582.44 1.35351 581.85C1.02539 581.26 0.861327 580.551 0.861327 579.722ZM2.88974 579.742C2.88974 579.974 2.96763 580.174 3.1234 580.344C3.27918 580.513 3.50124 580.643 3.78959 580.736C4.07795 580.829 4.42099 580.875 4.81871 580.875C5.21976 580.875 5.5628 580.829 5.84783 580.736C6.13619 580.643 6.35825 580.513 6.51403 580.344C6.6698 580.174 6.74769 579.974 6.74769 579.742C6.74769 579.497 6.6698 579.286 6.51403 579.111C6.35825 578.935 6.13619 578.801 5.84783 578.708C5.5628 578.615 5.21976 578.569 4.81871 578.569C4.42099 578.569 4.07795 578.615 3.78959 578.708C3.50124 578.801 3.27918 578.935 3.1234 579.111C2.96763 579.286 2.88974 579.497 2.88974 579.742Z" fill="#F8B300" fill-opacity="0.5"/>
<path d="M11.1816 565.422L11.1816 568.504L7.04528 570.493L7.04528 570.572L11.1816 572.561L11.1816 575.643L4.20153 571.905L0.999822 571.905L0.999822 569.161L4.20153 569.161L11.1816 565.422Z" fill="#F8B300" fill-opacity="0.5"/>
<path d="M0.861327 555.219C0.861328 554.391 1.02539 553.681 1.35352 553.091C1.68495 552.502 2.14566 552.049 2.73562 551.734C3.32889 551.419 4.01663 551.262 4.79883 551.262C5.58102 551.262 6.2671 551.419 6.85707 551.734C7.45034 552.049 7.91104 552.502 8.23917 553.091C8.57061 553.681 8.73633 554.391 8.73633 555.219C8.73633 556.048 8.57061 556.757 8.23917 557.347C7.91104 557.937 7.45034 558.39 6.85707 558.704C6.2671 559.019 5.58102 559.177 4.79883 559.177C4.01663 559.177 3.32889 559.019 2.73562 558.704C2.14566 558.39 1.68495 557.937 1.35351 557.347C1.02539 556.757 0.861327 556.048 0.861327 555.219ZM2.88974 555.239C2.88974 555.471 2.96763 555.672 3.1234 555.841C3.27918 556.01 3.50124 556.141 3.78959 556.234C4.07795 556.326 4.42099 556.373 4.81871 556.373C5.21976 556.373 5.5628 556.326 5.84783 556.234C6.13619 556.141 6.35825 556.01 6.51403 555.841C6.6698 555.672 6.74769 555.471 6.74769 555.239C6.74769 554.994 6.6698 554.784 6.51403 554.608C6.35825 554.432 6.13619 554.298 5.84783 554.205C5.5628 554.112 5.21976 554.066 4.81871 554.066C4.42099 554.066 4.07795 554.112 3.78959 554.205C3.50124 554.298 3.27918 554.432 3.1234 554.608C2.96763 554.784 2.88974 554.994 2.88974 555.239Z" fill="#F8B300" fill-opacity="0.5"/>
<path d="M7.82031 545.898C7.99597 545.855 8.15009 545.787 8.28267 545.695C8.41856 545.602 8.53291 545.486 8.62571 545.346C8.72183 545.211 8.79309 545.051 8.83949 544.869C8.8892 544.69 8.91406 544.493 8.91406 544.278C8.91406 543.814 8.80303 543.418 8.58097 543.089C8.3589 542.765 8.03906 542.516 7.62145 542.344C7.20383 542.175 6.70005 542.09 6.11009 542.09C5.51349 542.09 5.00308 542.171 4.57883 542.334C4.15459 542.496 3.82978 542.738 3.6044 543.06C3.37902 543.381 3.26634 543.78 3.26634 544.258C3.26634 544.679 3.32765 545.028 3.45028 545.307C3.57292 545.588 3.74692 545.799 3.9723 545.938C4.19768 546.077 4.46283 546.147 4.76776 546.147L4.71804 546.624L4.71804 544.297L6.68679 544.297L6.68679 548.812L5.27486 548.812C4.34683 548.812 3.55303 548.615 2.89347 548.22C2.23722 547.829 1.73343 547.289 1.3821 546.599C1.03409 545.913 0.860084 545.126 0.860084 544.238C0.860084 543.247 1.07055 542.377 1.49148 541.628C1.91241 540.879 2.51231 540.294 3.29119 539.873C4.07008 539.455 4.99645 539.246 6.07031 539.246C6.91217 539.246 7.65791 539.374 8.30753 539.629C8.95715 539.888 9.50568 540.246 9.95312 540.703C10.4039 541.16 10.7436 541.689 10.9723 542.289C11.2043 542.889 11.3203 543.532 11.3203 544.218C11.3203 544.821 11.2341 545.381 11.0618 545.898C10.8928 546.419 10.6508 546.878 10.3359 547.275C10.0244 547.676 9.65483 548 9.22727 548.245C8.79972 548.49 8.33073 548.639 7.82031 548.692L7.82031 545.898Z" fill="#F8B300" fill-opacity="0.5"/>
<path d="M8.11133 530.23C8.11133 530.566 8.02733 530.864 7.85933 531.126C7.70066 531.396 7.48599 531.611 7.21533 531.77C6.95399 531.938 6.65533 532.022 6.31933 532.022C5.99266 532.022 5.69399 531.938 5.42333 531.77C5.15266 531.611 4.93333 531.396 4.76533 531.126C4.60666 530.864 4.52733 530.566 4.52733 530.23C4.52733 529.903 4.60666 529.604 4.76533 529.334C4.93333 529.063 5.15266 528.844 5.42333 528.676C5.69399 528.517 5.99266 528.438 6.31933 528.438C6.65533 528.438 6.95399 528.517 7.21533 528.676C7.48599 528.844 7.70066 529.063 7.85933 529.334C8.02733 529.604 8.11133 529.903 8.11133 530.23Z" fill="#F8B300" fill-opacity="0.5"/>
<path d="M6.1511 521.275L6.1511 518.75C6.30688 518.737 6.44111 518.682 6.5538 518.586C6.66649 518.49 6.75266 518.365 6.81232 518.213C6.8753 518.064 6.90678 517.898 6.90678 517.716C6.90678 517.48 6.8637 517.278 6.77752 517.109C6.69135 516.94 6.56871 516.857 6.40962 516.861C6.29693 516.857 6.19253 516.905 6.09641 517.005C6.0003 517.108 5.92572 517.305 5.87269 517.596L5.59428 519.148C5.45176 519.93 5.21147 520.511 4.8734 520.893C4.53865 521.277 4.08955 521.471 3.5261 521.474C2.98254 521.471 2.51024 521.309 2.1092 520.987C1.71147 520.669 1.40323 520.233 1.18448 519.68C0.969045 519.129 0.861327 518.501 0.861327 517.795C0.861328 516.629 1.09996 515.716 1.57724 515.056C2.05451 514.4 2.68424 514.034 3.46644 513.957L3.46644 516.682C3.22449 516.718 3.03723 516.837 2.90465 517.04C2.77539 517.245 2.71076 517.504 2.71076 517.815C2.71076 518.067 2.75385 518.274 2.84002 518.437C2.9262 518.602 3.04883 518.687 3.20792 518.69C3.35375 518.687 3.46976 518.614 3.55593 518.471C3.6421 518.332 3.71171 518.113 3.76474 517.815L4.00337 516.463C4.13926 515.684 4.39779 515.101 4.77894 514.713C5.1601 514.325 5.65063 514.133 6.25053 514.136C6.78084 514.133 7.22994 514.272 7.59783 514.554C7.96905 514.839 8.25077 515.245 8.443 515.772C8.63855 516.302 8.73633 516.93 8.73633 517.656C8.73633 518.76 8.50763 519.63 8.05025 520.266C7.59286 520.906 6.95981 521.242 6.1511 521.275Z" fill="#F8B300" fill-opacity="0.5"/>
<path d="M1.00053 506.825L8.6369 506.825L8.6369 509.49L7.18519 509.49L7.18519 509.57C7.72212 509.709 8.11488 509.929 8.36346 510.231C8.61204 510.536 8.73633 510.892 8.73633 511.3C8.73633 511.419 8.72638 511.537 8.7065 511.653C8.68993 511.772 8.66507 511.886 8.63192 511.996L6.29031 511.996C6.33671 511.86 6.37151 511.692 6.39471 511.493C6.41791 511.295 6.42951 511.124 6.42951 510.981C6.42951 510.713 6.36819 510.471 6.24556 510.256C6.12624 510.043 5.95721 509.876 5.73846 509.753C5.52302 509.631 5.26947 509.57 4.97781 509.57L1.00053 509.57L1.00053 506.825Z" fill="#F8B300" fill-opacity="0.5"/>
<path d="M4.34126 501.285L8.63672 501.285L8.63672 504.029L1.00035 504.029L1.00035 501.424L2.45206 501.424L2.45206 501.345C1.96484 501.179 1.58369 500.889 1.30859 500.475C1.03681 500.06 0.900923 499.568 0.900923 498.998C0.900923 498.464 1.02356 497.997 1.26882 497.596C1.51409 497.198 1.85215 496.888 2.28302 496.666C2.7139 496.448 3.20774 496.337 3.76456 496.333L8.63672 496.333L8.63672 499.078L4.34126 499.078C3.96342 499.081 3.66678 499.177 3.45135 499.366C3.23591 499.558 3.1282 499.827 3.1282 500.171C3.1282 500.4 3.17625 500.597 3.27237 500.763C3.3718 500.932 3.51101 501.061 3.68999 501.151C3.87228 501.244 4.08937 501.288 4.34126 501.285Z" fill="#F8B300" fill-opacity="0.5"/>
<path d="M0.861327 489.862C0.861328 489.034 1.02539 488.324 1.35352 487.734C1.68495 487.144 2.14566 486.692 2.73562 486.377C3.32889 486.062 4.01663 485.905 4.79883 485.905C5.58102 485.905 6.2671 486.062 6.85707 486.377C7.45034 486.692 7.91104 487.144 8.23917 487.734C8.57061 488.324 8.73633 489.034 8.73633 489.862C8.73633 490.691 8.57061 491.4 8.23917 491.99C7.91104 492.58 7.45034 493.032 6.85707 493.347C6.2671 493.662 5.58102 493.82 4.79883 493.82C4.01663 493.82 3.32889 493.662 2.73562 493.347C2.14566 493.032 1.68495 492.58 1.35351 491.99C1.02539 491.4 0.861327 490.691 0.861327 489.862ZM2.88974 489.882C2.88974 490.114 2.96763 490.315 3.1234 490.484C3.27918 490.653 3.50124 490.784 3.78959 490.876C4.07795 490.969 4.42099 491.016 4.81871 491.016C5.21976 491.016 5.5628 490.969 5.84783 490.876C6.13619 490.784 6.35825 490.653 6.51403 490.484C6.6698 490.315 6.74769 490.114 6.74769 489.882C6.74769 489.637 6.6698 489.426 6.51403 489.251C6.35825 489.075 6.13619 488.941 5.84783 488.848C5.5628 488.755 5.21976 488.709 4.81871 488.709C4.42099 488.709 4.07795 488.755 3.78959 488.848C3.50124 488.941 3.27918 489.075 3.1234 489.251C2.96763 489.426 2.88974 489.637 2.88974 489.882Z" fill="#F8B300" fill-opacity="0.5"/>
<path d="M11.1816 475.562L11.1816 478.645L7.04528 480.633L7.04528 480.713L11.1816 482.701L11.1816 485.784L4.20153 482.045L0.999822 482.045L0.999822 479.301L4.20153 479.301L11.1816 475.562Z" fill="#F8B300" fill-opacity="0.5"/>
<path d="M0.861327 465.359C0.861328 464.531 1.02539 463.822 1.35352 463.232C1.68495 462.642 2.14566 462.189 2.73562 461.874C3.32889 461.56 4.01663 461.402 4.79883 461.402C5.58102 461.402 6.2671 461.56 6.85707 461.874C7.45034 462.189 7.91104 462.642 8.23917 463.232C8.57061 463.822 8.73633 464.531 8.73633 465.359C8.73633 466.188 8.57061 466.897 8.23917 467.487C7.91104 468.077 7.45034 468.53 6.85707 468.845C6.2671 469.159 5.58102 469.317 4.79883 469.317C4.01663 469.317 3.32889 469.159 2.73562 468.845C2.14566 468.53 1.68495 468.077 1.35351 467.487C1.02539 466.897 0.861327 466.188 0.861327 465.359ZM2.88974 465.379C2.88974 465.611 2.96763 465.812 3.1234 465.981C3.27918 466.15 3.50124 466.281 3.78959 466.374C4.07795 466.466 4.42099 466.513 4.81871 466.513C5.21976 466.513 5.5628 466.466 5.84783 466.374C6.13619 466.281 6.35825 466.15 6.51403 465.981C6.6698 465.812 6.74769 465.611 6.74769 465.379C6.74769 465.134 6.6698 464.924 6.51403 464.748C6.35825 464.572 6.13619 464.438 5.84783 464.345C5.5628 464.253 5.21976 464.206 4.81871 464.206C4.42099 464.206 4.07795 464.253 3.78959 464.345C3.50124 464.438 3.27918 464.572 3.1234 464.748C2.96763 464.924 2.88974 465.134 2.88974 465.379Z" fill="#F8B300" fill-opacity="0.5"/>
<path d="M7.82031 456.038C7.99597 455.995 8.15009 455.927 8.28267 455.835C8.41856 455.742 8.53291 455.626 8.62571 455.487C8.72183 455.351 8.79309 455.192 8.83949 455.009C8.8892 454.83 8.91406 454.633 8.91406 454.418C8.91406 453.954 8.80303 453.558 8.58097 453.229C8.3589 452.905 8.03906 452.656 7.62145 452.484C7.20383 452.315 6.70005 452.23 6.11009 452.23C5.51349 452.23 5.00308 452.311 4.57883 452.474C4.15459 452.636 3.82978 452.878 3.6044 453.2C3.37902 453.521 3.26634 453.921 3.26634 454.398C3.26634 454.819 3.32765 455.168 3.45028 455.447C3.57292 455.729 3.74692 455.939 3.9723 456.078C4.19768 456.217 4.46283 456.287 4.76776 456.287L4.71804 456.764L4.71804 454.438L6.68679 454.438L6.68679 458.952L5.27486 458.952C4.34683 458.952 3.55303 458.755 2.89347 458.36C2.23722 457.969 1.73343 457.429 1.3821 456.739C1.03409 456.053 0.860084 455.266 0.860084 454.378C0.860084 453.387 1.07055 452.517 1.49148 451.768C1.91241 451.019 2.51231 450.434 3.29119 450.013C4.07008 449.595 4.99645 449.386 6.07031 449.386C6.91217 449.386 7.65791 449.514 8.30753 449.769C8.95715 450.028 9.50568 450.386 9.95312 450.843C10.4039 451.301 10.7436 451.829 10.9723 452.429C11.2043 453.029 11.3203 453.672 11.3203 454.358C11.3203 454.961 11.2341 455.521 11.0618 456.038C10.8928 456.559 10.6508 457.018 10.3359 457.416C10.0244 457.817 9.65483 458.14 9.22727 458.385C8.79972 458.63 8.33073 458.779 7.82031 458.832L7.82031 456.038Z" fill="#F8B300" fill-opacity="0.5"/>
<path d="M8.11133 440.37C8.11133 440.706 8.02733 441.005 7.85933 441.266C7.70066 441.537 7.48599 441.751 7.21533 441.91C6.95399 442.078 6.65533 442.162 6.31933 442.162C5.99266 442.162 5.69399 442.078 5.42333 441.91C5.15266 441.751 4.93333 441.537 4.76533 441.266C4.60666 441.005 4.52733 440.706 4.52733 440.37C4.52733 440.043 4.60666 439.745 4.76533 439.474C4.93333 439.203 5.15266 438.984 5.42333 438.816C5.69399 438.657 5.99266 438.578 6.31933 438.578C6.65533 438.578 6.95399 438.657 7.21533 438.816C7.48599 438.984 7.70066 439.203 7.85933 439.474C8.02733 439.745 8.11133 440.043 8.11133 440.37Z" fill="#F8B300" fill-opacity="0.5"/>
<path d="M6.1511 431.416L6.1511 428.89C6.30688 428.877 6.44111 428.822 6.5538 428.726C6.66649 428.63 6.75266 428.506 6.81232 428.353C6.8753 428.204 6.90678 428.038 6.90678 427.856C6.90678 427.621 6.8637 427.419 6.77752 427.25C6.69135 427.081 6.56871 426.998 6.40962 427.001C6.29693 426.998 6.19253 427.046 6.09641 427.145C6.0003 427.248 5.92572 427.445 5.87269 427.737L5.59428 429.288C5.45176 430.07 5.21147 430.652 4.8734 431.033C4.53865 431.418 4.08955 431.611 3.5261 431.615C2.98254 431.611 2.51024 431.449 2.1092 431.128C1.71147 430.809 1.40323 430.373 1.18448 429.82C0.969045 429.27 0.861327 428.642 0.861327 427.936C0.861328 426.769 1.09996 425.856 1.57724 425.196C2.05451 424.54 2.68424 424.174 3.46644 424.098L3.46644 426.822C3.22449 426.859 3.03723 426.978 2.90465 427.18C2.77539 427.386 2.71076 427.644 2.71076 427.956C2.71076 428.208 2.75385 428.415 2.84002 428.577C2.9262 428.743 3.04883 428.827 3.20792 428.831C3.35375 428.827 3.46976 428.754 3.55593 428.612C3.6421 428.473 3.71171 428.254 3.76474 427.956L4.00337 426.603C4.13926 425.824 4.39779 425.241 4.77894 424.853C5.1601 424.466 5.65063 424.273 6.25053 424.277C6.78084 424.273 7.22994 424.413 7.59783 424.694C7.96905 424.979 8.25077 425.385 8.443 425.912C8.63855 426.443 8.73633 427.071 8.73633 427.797C8.73633 428.9 8.50763 429.77 8.05025 430.407C7.59286 431.046 6.95981 431.383 6.1511 431.416Z" fill="#F8B300" fill-opacity="0.5"/>
<path d="M1.00053 416.965L8.6369 416.965L8.6369 419.63L7.18519 419.63L7.18519 419.71C7.72212 419.849 8.11488 420.069 8.36346 420.371C8.61204 420.676 8.73633 421.032 8.73633 421.44C8.73633 421.559 8.72638 421.677 8.7065 421.793C8.68993 421.912 8.66507 422.026 8.63192 422.136L6.29031 422.136C6.33671 422 6.37151 421.833 6.39471 421.634C6.41791 421.435 6.42951 421.264 6.42951 421.122C6.42951 420.853 6.36819 420.611 6.24556 420.396C6.12624 420.184 5.95721 420.016 5.73846 419.894C5.52302 419.771 5.26947 419.71 4.97781 419.71L1.00053 419.71L1.00053 416.965Z" fill="#F8B300" fill-opacity="0.5"/>
<path d="M4.34126 411.425L8.63672 411.425L8.63672 414.17L1.00035 414.17L1.00035 411.565L2.45206 411.565L2.45206 411.485C1.96484 411.319 1.58369 411.029 1.30859 410.615C1.03681 410.201 0.900923 409.709 0.900923 409.138C0.900923 408.605 1.02356 408.137 1.26882 407.736C1.51409 407.339 1.85215 407.029 2.28302 406.807C2.7139 406.588 3.20774 406.477 3.76456 406.474L8.63672 406.474L8.63672 409.218L4.34126 409.218C3.96342 409.221 3.66678 409.317 3.45135 409.506C3.23591 409.699 3.1282 409.967 3.1282 410.312C3.1282 410.54 3.17625 410.738 3.27237 410.903C3.3718 411.072 3.51101 411.202 3.68999 411.291C3.87228 411.384 4.08937 411.429 4.34126 411.425Z" fill="#F8B300" fill-opacity="0.5"/>
<path d="M0.861327 400.003C0.861328 399.174 1.02539 398.465 1.35352 397.875C1.68495 397.285 2.14566 396.832 2.73562 396.517C3.32889 396.203 4.01663 396.045 4.79883 396.045C5.58102 396.045 6.2671 396.203 6.85707 396.517C7.45034 396.832 7.91104 397.285 8.23917 397.875C8.57061 398.465 8.73633 399.174 8.73633 400.003C8.73633 400.831 8.57061 401.54 8.23917 402.13C7.91104 402.72 7.45034 403.173 6.85707 403.488C6.2671 403.803 5.58102 403.96 4.79883 403.96C4.01663 403.96 3.32889 403.803 2.73562 403.488C2.14566 403.173 1.68495 402.72 1.35351 402.13C1.02539 401.54 0.861327 400.831 0.861327 400.003ZM2.88974 400.022C2.88974 400.254 2.96763 400.455 3.1234 400.624C3.27918 400.793 3.50124 400.924 3.78959 401.017C4.07795 401.11 4.42099 401.156 4.81871 401.156C5.21976 401.156 5.5628 401.11 5.84783 401.017C6.13619 400.924 6.35825 400.793 6.51403 400.624C6.6698 400.455 6.74769 400.254 6.74769 400.022C6.74769 399.777 6.6698 399.567 6.51403 399.391C6.35825 399.215 6.13619 399.081 5.84783 398.988C5.5628 398.896 5.21976 398.849 4.81871 398.849C4.42099 398.849 4.07795 398.896 3.78959 398.988C3.50124 399.081 3.27918 399.215 3.1234 399.391C2.96763 399.567 2.88974 399.777 2.88974 400.022Z" fill="#F8B300" fill-opacity="0.5"/>
<path d="M11.1816 385.702L11.1816 388.785L7.04528 390.773L7.04528 390.853L11.1816 392.842L11.1816 395.924L4.20153 392.185L0.999822 392.185L0.999822 389.441L4.20153 389.441L11.1816 385.702Z" fill="#F8B300" fill-opacity="0.5"/>
<path d="M0.861327 375.5C0.861328 374.671 1.02539 373.962 1.35352 373.372C1.68495 372.782 2.14566 372.33 2.73562 372.015C3.32889 371.7 4.01663 371.542 4.79883 371.542C5.58102 371.542 6.2671 371.7 6.85707 372.015C7.45034 372.33 7.91104 372.782 8.23917 373.372C8.57061 373.962 8.73633 374.671 8.73633 375.5C8.73633 376.328 8.57061 377.038 8.23917 377.628C7.91104 378.218 7.45034 378.67 6.85707 378.985C6.2671 379.3 5.58102 379.457 4.79883 379.457C4.01663 379.457 3.32889 379.3 2.73562 378.985C2.14566 378.67 1.68495 378.218 1.35351 377.628C1.02539 377.038 0.861327 376.328 0.861327 375.5ZM2.88974 375.52C2.88974 375.752 2.96763 375.952 3.1234 376.121C3.27918 376.29 3.50124 376.421 3.78959 376.514C4.07795 376.607 4.42099 376.653 4.81871 376.653C5.21976 376.653 5.5628 376.607 5.84783 376.514C6.13619 376.421 6.35825 376.29 6.51403 376.121C6.6698 375.952 6.74769 375.752 6.74769 375.52C6.74769 375.275 6.6698 375.064 6.51403 374.888C6.35825 374.713 6.13619 374.578 5.84783 374.486C5.5628 374.393 5.21976 374.346 4.81871 374.346C4.42099 374.346 4.07795 374.393 3.78959 374.486C3.50124 374.578 3.27918 374.713 3.1234 374.888C2.96763 375.064 2.88974 375.275 2.88974 375.52Z" fill="#F8B300" fill-opacity="0.5"/>
<path d="M7.82031 366.179C7.99597 366.136 8.15009 366.068 8.28267 365.975C8.41856 365.882 8.53291 365.766 8.62571 365.627C8.72183 365.491 8.79309 365.332 8.83949 365.15C8.8892 364.971 8.91406 364.774 8.91406 364.558C8.91406 364.094 8.80303 363.698 8.58097 363.37C8.3589 363.045 8.03906 362.796 7.62145 362.624C7.20383 362.455 6.70005 362.371 6.11009 362.371C5.51349 362.371 5.00308 362.452 4.57883 362.614C4.15459 362.777 3.82978 363.019 3.6044 363.34C3.37902 363.662 3.26634 364.061 3.26634 364.538C3.26634 364.959 3.32765 365.309 3.45028 365.587C3.57292 365.869 3.74692 366.079 3.9723 366.219C4.19768 366.358 4.46283 366.427 4.76776 366.427L4.71804 366.905L4.71804 364.578L6.68679 364.578L6.68679 369.092L5.27486 369.092C4.34683 369.092 3.55303 368.895 2.89347 368.501C2.23722 368.109 1.73343 367.569 1.3821 366.88C1.03409 366.194 0.860084 365.407 0.860084 364.518C0.860084 363.527 1.07055 362.657 1.49148 361.908C1.91241 361.159 2.51231 360.574 3.29119 360.153C4.07008 359.736 4.99645 359.527 6.07031 359.527C6.91217 359.527 7.65791 359.654 8.30753 359.91C8.95715 360.168 9.50568 360.526 9.95312 360.984C10.4039 361.441 10.7436 361.97 10.9723 362.569C11.2043 363.169 11.3203 363.812 11.3203 364.498C11.3203 365.102 11.2341 365.662 11.0618 366.179C10.8928 366.699 10.6508 367.158 10.3359 367.556C10.0244 367.957 9.65483 368.28 9.22727 368.525C8.79972 368.771 8.33073 368.92 7.82031 368.973L7.82031 366.179Z" fill="#F8B300" fill-opacity="0.5"/>
<path d="M8.11133 350.51C8.11133 350.846 8.02733 351.145 7.85933 351.406C7.70066 351.677 7.48599 351.892 7.21533 352.05C6.95399 352.218 6.65533 352.302 6.31933 352.302C5.99266 352.302 5.69399 352.218 5.42333 352.05C5.15266 351.892 4.93333 351.677 4.76533 351.406C4.60666 351.145 4.52733 350.846 4.52733 350.51C4.52733 350.184 4.60666 349.885 4.76533 349.614C4.93333 349.344 5.15266 349.124 5.42333 348.956C5.69399 348.798 5.99266 348.718 6.31933 348.718C6.65533 348.718 6.95399 348.798 7.21533 348.956C7.48599 349.124 7.70066 349.344 7.85933 349.614C8.02733 349.885 8.11133 350.184 8.11133 350.51Z" fill="#F8B300" fill-opacity="0.5"/>
<path d="M6.1511 341.556L6.1511 339.03C6.30688 339.017 6.44111 338.962 6.5538 338.866C6.66649 338.77 6.75266 338.646 6.81232 338.493C6.8753 338.344 6.90678 338.179 6.90678 337.996C6.90678 337.761 6.8637 337.559 6.77752 337.39C6.69135 337.221 6.56871 337.138 6.40962 337.141C6.29693 337.138 6.19253 337.186 6.09641 337.285C6.0003 337.388 5.92572 337.585 5.87269 337.877L5.59428 339.428C5.45176 340.21 5.21147 340.792 4.8734 341.173C4.53865 341.558 4.08955 341.752 3.5261 341.755C2.98254 341.752 2.51024 341.589 2.1092 341.268C1.71147 340.949 1.40323 340.514 1.18448 339.96C0.969045 339.41 0.861327 338.782 0.861327 338.076C0.861328 336.909 1.09996 335.996 1.57724 335.337C2.05451 334.68 2.68424 334.314 3.46644 334.238L3.46644 336.962C3.22449 336.999 3.03723 337.118 2.90465 337.32C2.77539 337.526 2.71076 337.784 2.71076 338.096C2.71076 338.348 2.75385 338.555 2.84002 338.717C2.9262 338.883 3.04883 338.967 3.20792 338.971C3.35375 338.967 3.46976 338.895 3.55593 338.752C3.6421 338.613 3.71171 338.394 3.76474 338.096L4.00337 336.743C4.13926 335.965 4.39779 335.381 4.77894 334.993C5.1601 334.606 5.65063 334.413 6.25053 334.417C6.78084 334.413 7.22994 334.553 7.59783 334.834C7.96905 335.119 8.25077 335.525 8.443 336.052C8.63855 336.583 8.73633 337.211 8.73633 337.937C8.73633 339.04 8.50763 339.91 8.05025 340.547C7.59286 341.186 6.95981 341.523 6.1511 341.556Z" fill="#F8B300" fill-opacity="0.5"/>
<path d="M1.00053 327.105L8.6369 327.105L8.6369 329.77L7.18519 329.77L7.18519 329.85C7.72212 329.989 8.11488 330.209 8.36346 330.511C8.61204 330.816 8.73633 331.172 8.73633 331.58C8.73633 331.699 8.72638 331.817 8.7065 331.933C8.68993 332.052 8.66507 332.167 8.63192 332.276L6.29031 332.276C6.33671 332.14 6.37151 331.973 6.39471 331.774C6.41791 331.575 6.42951 331.404 6.42951 331.262C6.42951 330.993 6.36819 330.751 6.24556 330.536C6.12624 330.324 5.95721 330.156 5.73846 330.034C5.52302 329.911 5.26947 329.85 4.97781 329.85L1.00053 329.85L1.00053 327.105Z" fill="#F8B300" fill-opacity="0.5"/>
<path d="M4.34126 321.565L8.63672 321.565L8.63672 324.31L1.00035 324.31L1.00035 321.705L2.45206 321.705L2.45206 321.625C1.96484 321.459 1.58369 321.169 1.30859 320.755C1.03681 320.341 0.900923 319.849 0.900923 319.279C0.900923 318.745 1.02356 318.278 1.26882 317.877C1.51409 317.479 1.85215 317.169 2.28302 316.947C2.7139 316.728 3.20774 316.617 3.76456 316.614L8.63672 316.614L8.63672 319.358L4.34126 319.358C3.96342 319.361 3.66678 319.458 3.45135 319.646C3.23591 319.839 3.1282 320.107 3.1282 320.452C3.1282 320.681 3.17625 320.878 3.27237 321.043C3.3718 321.212 3.51101 321.342 3.68999 321.431C3.87228 321.524 4.08937 321.569 4.34126 321.565Z" fill="#F8B300" fill-opacity="0.5"/>
<path d="M0.861327 310.143C0.861328 309.314 1.02539 308.605 1.35352 308.015C1.68495 307.425 2.14566 306.972 2.73562 306.658C3.32889 306.343 4.01663 306.185 4.79883 306.185C5.58102 306.185 6.2671 306.343 6.85707 306.658C7.45034 306.972 7.91104 307.425 8.23917 308.015C8.57061 308.605 8.73633 309.314 8.73633 310.143C8.73633 310.971 8.57061 311.681 8.23917 312.271C7.91104 312.861 7.45034 313.313 6.85707 313.628C6.2671 313.943 5.58102 314.1 4.79883 314.1C4.01663 314.1 3.32889 313.943 2.73562 313.628C2.14566 313.313 1.68495 312.861 1.35351 312.271C1.02539 311.681 0.861327 310.971 0.861327 310.143ZM2.88974 310.163C2.88974 310.395 2.96763 310.595 3.1234 310.764C3.27918 310.933 3.50124 311.064 3.78959 311.157C4.07795 311.25 4.42099 311.296 4.81871 311.296C5.21976 311.296 5.5628 311.25 5.84783 311.157C6.13619 311.064 6.35825 310.933 6.51403 310.764C6.6698 310.595 6.74769 310.395 6.74769 310.163C6.74769 309.917 6.6698 309.707 6.51403 309.531C6.35825 309.356 6.13619 309.221 5.84783 309.129C5.5628 309.036 5.21976 308.989 4.81871 308.989C4.42099 308.989 4.07795 309.036 3.78959 309.129C3.50124 309.221 3.27918 309.356 3.1234 309.531C2.96763 309.707 2.88974 309.917 2.88974 310.163Z" fill="#F8B300" fill-opacity="0.5"/>
<path d="M11.1816 295.843L11.1816 298.925L7.04528 300.914L7.04528 300.993L11.1816 302.982L11.1816 306.064L4.20153 302.326L0.999822 302.326L0.999822 299.581L4.20153 299.581L11.1816 295.843Z" fill="#F8B300" fill-opacity="0.5"/>
<path d="M0.861327 285.64C0.861328 284.811 1.02539 284.102 1.35352 283.512C1.68495 282.922 2.14566 282.47 2.73562 282.155C3.32889 281.84 4.01663 281.683 4.79883 281.683C5.58102 281.683 6.2671 281.84 6.85707 282.155C7.45034 282.47 7.91104 282.922 8.23917 283.512C8.57061 284.102 8.73633 284.811 8.73633 285.64C8.73633 286.469 8.57061 287.178 8.23917 287.768C7.91104 288.358 7.45034 288.81 6.85707 289.125C6.2671 289.44 5.58102 289.597 4.79883 289.597C4.01663 289.597 3.32889 289.44 2.73562 289.125C2.14566 288.81 1.68495 288.358 1.35351 287.768C1.02539 287.178 0.861327 286.469 0.861327 285.64ZM2.88974 285.66C2.88974 285.892 2.96763 286.092 3.1234 286.261C3.27918 286.431 3.50124 286.561 3.78959 286.654C4.07795 286.747 4.42099 286.793 4.81871 286.793C5.21976 286.793 5.5628 286.747 5.84783 286.654C6.13619 286.561 6.35825 286.431 6.51403 286.261C6.6698 286.092 6.74769 285.892 6.74769 285.66C6.74769 285.415 6.6698 285.204 6.51403 285.029C6.35825 284.853 6.13619 284.719 5.84783 284.626C5.5628 284.533 5.21976 284.487 4.81871 284.487C4.42099 284.487 4.07795 284.533 3.78959 284.626C3.50124 284.719 3.27918 284.853 3.1234 285.029C2.96763 285.204 2.88974 285.415 2.88974 285.66Z" fill="#F8B300" fill-opacity="0.5"/>
<path d="M7.82031 276.319C7.99597 276.276 8.15009 276.208 8.28267 276.115C8.41856 276.022 8.53291 275.906 8.62571 275.767C8.72183 275.631 8.79309 275.472 8.83949 275.29C8.8892 275.111 8.91406 274.914 8.91406 274.698C8.91406 274.234 8.80303 273.838 8.58097 273.51C8.3589 273.185 8.03906 272.937 7.62145 272.764C7.20383 272.595 6.70005 272.511 6.11009 272.511C5.51349 272.511 5.00308 272.592 4.57883 272.754C4.15459 272.917 3.82978 273.159 3.6044 273.48C3.37902 273.802 3.26634 274.201 3.26634 274.678C3.26634 275.099 3.32765 275.449 3.45028 275.727C3.57292 276.009 3.74692 276.22 3.9723 276.359C4.19768 276.498 4.46283 276.568 4.76776 276.568L4.71804 277.045L4.71804 274.718L6.68679 274.718L6.68679 279.232L5.27486 279.232C4.34683 279.232 3.55303 279.035 2.89347 278.641C2.23722 278.25 1.73343 277.709 1.3821 277.02C1.03409 276.334 0.860084 275.547 0.860084 274.658C0.860084 273.667 1.07055 272.797 1.49148 272.048C1.91241 271.299 2.51231 270.714 3.29119 270.293C4.07008 269.876 4.99645 269.667 6.07031 269.667C6.91217 269.667 7.65791 269.795 8.30753 270.05C8.95715 270.308 9.50568 270.666 9.95312 271.124C10.4039 271.581 10.7436 272.11 10.9723 272.71C11.2043 273.309 11.3203 273.953 11.3203 274.639C11.3203 275.242 11.2341 275.802 11.0618 276.319C10.8928 276.839 10.6508 277.298 10.3359 277.696C10.0244 278.097 9.65483 278.42 9.22727 278.666C8.79972 278.911 8.33073 279.06 7.82031 279.113L7.82031 276.319Z" fill="#F8B300" fill-opacity="0.5"/>
<path d="M8.11133 260.651C8.11133 260.987 8.02733 261.285 7.85933 261.547C7.70066 261.817 7.48599 262.032 7.21533 262.191C6.95399 262.359 6.65533 262.443 6.31933 262.443C5.99266 262.443 5.69399 262.359 5.42333 262.191C5.15266 262.032 4.93333 261.817 4.76533 261.547C4.60666 261.285 4.52733 260.987 4.52733 260.651C4.52733 260.324 4.60666 260.025 4.76533 259.755C4.93333 259.484 5.15266 259.265 5.42333 259.097C5.69399 258.938 5.99266 258.859 6.31933 258.859C6.65533 258.859 6.95399 258.938 7.21533 259.097C7.48599 259.265 7.70066 259.484 7.85933 259.755C8.02733 260.025 8.11133 260.324 8.11133 260.651Z" fill="#F8B300" fill-opacity="0.5"/>
<path d="M6.1511 251.696L6.1511 249.171C6.30688 249.158 6.44111 249.103 6.5538 249.007C6.66649 248.911 6.75266 248.786 6.81232 248.634C6.8753 248.485 6.90678 248.319 6.90678 248.137C6.90678 247.901 6.8637 247.699 6.77752 247.53C6.69135 247.361 6.56871 247.278 6.40962 247.282C6.29693 247.278 6.19253 247.326 6.09641 247.426C6.0003 247.528 5.92572 247.726 5.87269 248.017L5.59428 249.569C5.45176 250.351 5.21147 250.932 4.8734 251.314C4.53865 251.698 4.08955 251.892 3.5261 251.895C2.98254 251.892 2.51024 251.73 2.1092 251.408C1.71147 251.09 1.40323 250.654 1.18448 250.1C0.969045 249.55 0.861327 248.922 0.861327 248.216C0.861328 247.05 1.09996 246.136 1.57724 245.477C2.05451 244.821 2.68424 244.454 3.46644 244.378L3.46644 247.103C3.22449 247.139 3.03723 247.258 2.90465 247.461C2.77539 247.666 2.71076 247.925 2.71076 248.236C2.71076 248.488 2.75385 248.695 2.84002 248.858C2.9262 249.023 3.04883 249.108 3.20792 249.111C3.35375 249.108 3.46976 249.035 3.55593 248.892C3.6421 248.753 3.71171 248.534 3.76474 248.236L4.00337 246.884C4.13926 246.105 4.39779 245.522 4.77894 245.134C5.1601 244.746 5.65063 244.554 6.25053 244.557C6.78084 244.554 7.22994 244.693 7.59783 244.975C7.96905 245.26 8.25077 245.666 8.443 246.193C8.63855 246.723 8.73633 247.351 8.73633 248.077C8.73633 249.181 8.50763 250.051 8.05025 250.687C7.59286 251.327 6.95981 251.663 6.1511 251.696Z" fill="#F8B300" fill-opacity="0.5"/>
<path d="M1.00053 237.246L8.6369 237.246L8.6369 239.911L7.18519 239.911L7.18519 239.99C7.72212 240.129 8.11488 240.35 8.36346 240.651C8.61204 240.956 8.73633 241.313 8.73633 241.72C8.73633 241.84 8.72638 241.957 8.7065 242.073C8.68993 242.193 8.66507 242.307 8.63192 242.416L6.29031 242.416C6.33671 242.28 6.37151 242.113 6.39471 241.914C6.41791 241.715 6.42951 241.545 6.42951 241.402C6.42951 241.134 6.36819 240.892 6.24556 240.676C6.12624 240.464 5.95721 240.297 5.73846 240.174C5.52302 240.051 5.26947 239.99 4.97781 239.99L1.00053 239.99L1.00053 237.246Z" fill="#F8B300" fill-opacity="0.5"/>
<path d="M4.34126 231.706L8.63672 231.706L8.63672 234.45L1.00035 234.45L1.00035 231.845L2.45206 231.845L2.45206 231.765C1.96484 231.6 1.58369 231.31 1.30859 230.895C1.03681 230.481 0.900923 229.989 0.900923 229.419C0.900923 228.885 1.02356 228.418 1.26882 228.017C1.51409 227.619 1.85215 227.309 2.28302 227.087C2.7139 226.868 3.20774 226.757 3.76456 226.754L8.63672 226.754L8.63672 229.498L4.34126 229.498C3.96342 229.502 3.66678 229.598 3.45135 229.787C3.23591 229.979 3.1282 230.247 3.1282 230.592C3.1282 230.821 3.17625 231.018 3.27237 231.184C3.3718 231.353 3.51101 231.482 3.68999 231.571C3.87228 231.664 4.08937 231.709 4.34126 231.706Z" fill="#F8B300" fill-opacity="0.5"/>
<path d="M0.861327 220.283C0.861328 219.454 1.02539 218.745 1.35352 218.155C1.68495 217.565 2.14566 217.113 2.73562 216.798C3.32889 216.483 4.01663 216.326 4.79883 216.326C5.58102 216.326 6.2671 216.483 6.85707 216.798C7.45034 217.113 7.91104 217.565 8.23917 218.155C8.57061 218.745 8.73633 219.454 8.73633 220.283C8.73633 221.112 8.57061 221.821 8.23917 222.411C7.91104 223.001 7.45034 223.453 6.85707 223.768C6.2671 224.083 5.58102 224.24 4.79883 224.24C4.01663 224.24 3.32889 224.083 2.73562 223.768C2.14566 223.453 1.68495 223.001 1.35351 222.411C1.02539 221.821 0.861327 221.112 0.861327 220.283ZM2.88974 220.303C2.88974 220.535 2.96763 220.735 3.1234 220.905C3.27918 221.074 3.50124 221.204 3.78959 221.297C4.07795 221.39 4.42099 221.436 4.81871 221.436C5.21976 221.436 5.5628 221.39 5.84783 221.297C6.13619 221.204 6.35825 221.074 6.51403 220.905C6.6698 220.735 6.74769 220.535 6.74769 220.303C6.74769 220.058 6.6698 219.847 6.51403 219.672C6.35825 219.496 6.13619 219.362 5.84783 219.269C5.5628 219.176 5.21976 219.13 4.81871 219.13C4.42099 219.13 4.07795 219.176 3.78959 219.269C3.50124 219.362 3.27918 219.496 3.1234 219.672C2.96763 219.847 2.88974 220.058 2.88974 220.303Z" fill="#F8B300" fill-opacity="0.5"/>
<path d="M11.1816 205.983L11.1816 209.065L7.04528 211.054L7.04528 211.133L11.1816 213.122L11.1816 216.204L4.20153 212.466L0.999822 212.466L0.999822 209.722L4.20153 209.722L11.1816 205.983Z" fill="#F8B300" fill-opacity="0.5"/>
<path d="M0.861327 195.78C0.861328 194.952 1.02539 194.243 1.35352 193.653C1.68495 193.063 2.14566 192.61 2.73562 192.295C3.32889 191.98 4.01663 191.823 4.79883 191.823C5.58102 191.823 6.2671 191.98 6.85707 192.295C7.45034 192.61 7.91104 193.063 8.23917 193.653C8.57061 194.243 8.73633 194.952 8.73633 195.78C8.73633 196.609 8.57061 197.318 8.23917 197.908C7.91104 198.498 7.45034 198.951 6.85707 199.265C6.2671 199.58 5.58102 199.738 4.79883 199.738C4.01663 199.738 3.32889 199.58 2.73562 199.265C2.14566 198.951 1.68495 198.498 1.35351 197.908C1.02539 197.318 0.861327 196.609 0.861327 195.78ZM2.88974 195.8C2.88974 196.032 2.96763 196.233 3.1234 196.402C3.27918 196.571 3.50124 196.702 3.78959 196.795C4.07795 196.887 4.42099 196.934 4.81871 196.934C5.21976 196.934 5.5628 196.887 5.84783 196.795C6.13619 196.702 6.35825 196.571 6.51403 196.402C6.6698 196.233 6.74769 196.032 6.74769 195.8C6.74769 195.555 6.6698 195.345 6.51403 195.169C6.35825 194.993 6.13619 194.859 5.84783 194.766C5.5628 194.673 5.21976 194.627 4.81871 194.627C4.42099 194.627 4.07795 194.673 3.78959 194.766C3.50124 194.859 3.27918 194.993 3.1234 195.169C2.96763 195.345 2.88974 195.555 2.88974 195.8Z" fill="#F8B300" fill-opacity="0.5"/>
<path d="M7.82031 186.459C7.99597 186.416 8.15009 186.348 8.28267 186.256C8.41856 186.163 8.53291 186.047 8.62571 185.908C8.72183 185.772 8.79309 185.613 8.83949 185.43C8.8892 185.251 8.91406 185.054 8.91406 184.839C8.91406 184.375 8.80303 183.979 8.58097 183.65C8.3589 183.326 8.03906 183.077 7.62145 182.905C7.20383 182.736 6.70005 182.651 6.11009 182.651C5.51349 182.651 5.00308 182.732 4.57883 182.895C4.15459 183.057 3.82978 183.299 3.6044 183.621C3.37902 183.942 3.26634 184.341 3.26634 184.819C3.26634 185.24 3.32765 185.589 3.45028 185.868C3.57292 186.149 3.74692 186.36 3.9723 186.499C4.19768 186.638 4.46283 186.708 4.76776 186.708L4.71804 187.185L4.71804 184.859L6.68679 184.859L6.68679 189.373L5.27486 189.373C4.34683 189.373 3.55303 189.176 2.89347 188.781C2.23722 188.39 1.73343 187.85 1.3821 187.16C1.03409 186.474 0.860084 185.687 0.860084 184.799C0.860084 183.808 1.07055 182.938 1.49148 182.189C1.91241 181.44 2.51231 180.855 3.29119 180.434C4.07008 180.016 4.99645 179.807 6.07031 179.807C6.91217 179.807 7.65791 179.935 8.30753 180.19C8.95715 180.449 9.50568 180.807 9.95312 181.264C10.4039 181.721 10.7436 182.25 10.9723 182.85C11.2043 183.45 11.3203 184.093 11.3203 184.779C11.3203 185.382 11.2341 185.942 11.0618 186.459C10.8928 186.98 10.6508 187.439 10.3359 187.837C10.0244 188.238 9.65483 188.561 9.22727 188.806C8.79972 189.051 8.33073 189.2 7.82031 189.253L7.82031 186.459Z" fill="#F8B300" fill-opacity="0.5"/>
<path d="M8.11133 170.791C8.11133 171.127 8.02733 171.425 7.85933 171.687C7.70066 171.957 7.48599 172.172 7.21533 172.331C6.95399 172.499 6.65533 172.583 6.31933 172.583C5.99266 172.583 5.69399 172.499 5.42333 172.331C5.15266 172.172 4.93333 171.957 4.76533 171.687C4.60666 171.425 4.52733 171.127 4.52733 170.791C4.52733 170.464 4.60666 170.165 4.76533 169.895C4.93333 169.624 5.15266 169.405 5.42333 169.237C5.69399 169.078 5.99266 168.999 6.31933 168.999C6.65533 168.999 6.95399 169.078 7.21533 169.237C7.48599 169.405 7.70066 169.624 7.85933 169.895C8.02733 170.165 8.11133 170.464 8.11133 170.791Z" fill="#F8B300" fill-opacity="0.5"/>
<path d="M6.1511 161.836L6.1511 159.311C6.30688 159.298 6.44111 159.243 6.5538 159.147C6.66649 159.051 6.75266 158.926 6.81232 158.774C6.8753 158.625 6.90678 158.459 6.90678 158.277C6.90678 158.042 6.8637 157.839 6.77752 157.67C6.69135 157.501 6.56871 157.418 6.40962 157.422C6.29693 157.418 6.19253 157.466 6.09641 157.566C6.0003 157.669 5.92572 157.866 5.87269 158.158L5.59428 159.709C5.45176 160.491 5.21147 161.073 4.8734 161.454C4.53865 161.838 4.08955 162.032 3.5261 162.035C2.98254 162.032 2.51024 161.87 2.1092 161.548C1.71147 161.23 1.40323 160.794 1.18448 160.241C0.969045 159.69 0.861327 159.062 0.861327 158.356C0.861328 157.19 1.09996 156.277 1.57724 155.617C2.05451 154.961 2.68424 154.595 3.46644 154.518L3.46644 157.243C3.22449 157.279 3.03723 157.399 2.90465 157.601C2.77539 157.806 2.71076 158.065 2.71076 158.376C2.71076 158.628 2.75385 158.835 2.84002 158.998C2.9262 159.163 3.04883 159.248 3.20792 159.251C3.35375 159.248 3.46976 159.175 3.55593 159.033C3.6421 158.893 3.71171 158.675 3.76474 158.376L4.00337 157.024C4.13926 156.245 4.39779 155.662 4.77894 155.274C5.1601 154.886 5.65063 154.694 6.25053 154.697C6.78084 154.694 7.22994 154.833 7.59783 155.115C7.96905 155.4 8.25077 155.806 8.443 156.333C8.63855 156.863 8.73633 157.491 8.73633 158.217C8.73633 159.321 8.50763 160.191 8.05025 160.827C7.59286 161.467 6.95981 161.803 6.1511 161.836Z" fill="#F8B300" fill-opacity="0.5"/>
<path d="M1.00053 147.386L8.6369 147.386L8.6369 150.051L7.18519 150.051L7.18519 150.13C7.72212 150.269 8.11488 150.49 8.36346 150.792C8.61204 151.096 8.73633 151.453 8.73633 151.86C8.73633 151.98 8.72638 152.097 8.7065 152.213C8.68993 152.333 8.66507 152.447 8.63192 152.556L6.29031 152.556C6.33671 152.421 6.37151 152.253 6.39471 152.054C6.41791 151.855 6.42951 151.685 6.42951 151.542C6.42951 151.274 6.36819 151.032 6.24556 150.816C6.12624 150.604 5.95721 150.437 5.73846 150.314C5.52302 150.192 5.26947 150.13 4.97781 150.13L1.00053 150.13L1.00053 147.386Z" fill="#F8B300" fill-opacity="0.5"/>
<path d="M4.34126 141.846L8.63672 141.846L8.63672 144.59L1.00035 144.59L1.00035 141.985L2.45206 141.985L2.45206 141.906C1.96484 141.74 1.58369 141.45 1.30859 141.036C1.03681 140.621 0.900923 140.129 0.900923 139.559C0.900923 139.025 1.02356 138.558 1.26882 138.157C1.51409 137.759 1.85215 137.449 2.28302 137.227C2.7139 137.009 3.20774 136.898 3.76456 136.894L8.63672 136.894L8.63672 139.639L4.34126 139.639C3.96342 139.642 3.66678 139.738 3.45135 139.927C3.23591 140.119 3.1282 140.388 3.1282 140.732C3.1282 140.961 3.17625 141.158 3.27237 141.324C3.3718 141.493 3.51101 141.622 3.68999 141.712C3.87228 141.805 4.08937 141.849 4.34126 141.846Z" fill="#F8B300" fill-opacity="0.5"/>
<path d="M0.861327 130.423C0.861328 129.595 1.02539 128.885 1.35352 128.295C1.68495 127.705 2.14566 127.253 2.73562 126.938C3.32889 126.623 4.01663 126.466 4.79883 126.466C5.58102 126.466 6.2671 126.623 6.85707 126.938C7.45034 127.253 7.91104 127.705 8.23917 128.295C8.57061 128.885 8.73633 129.595 8.73633 130.423C8.73633 131.252 8.57061 131.961 8.23917 132.551C7.91104 133.141 7.45034 133.593 6.85707 133.908C6.2671 134.223 5.58102 134.381 4.79883 134.381C4.01663 134.381 3.32889 134.223 2.73562 133.908C2.14566 133.593 1.68495 133.141 1.35351 132.551C1.02539 131.961 0.861327 131.252 0.861327 130.423ZM2.88974 130.443C2.88974 130.675 2.96763 130.876 3.1234 131.045C3.27918 131.214 3.50124 131.345 3.78959 131.437C4.07795 131.53 4.42099 131.577 4.81871 131.577C5.21976 131.577 5.5628 131.53 5.84783 131.437C6.13619 131.345 6.35825 131.214 6.51403 131.045C6.6698 130.876 6.74769 130.675 6.74769 130.443C6.74769 130.198 6.6698 129.987 6.51403 129.812C6.35825 129.636 6.13619 129.502 5.84783 129.409C5.5628 129.316 5.21976 129.27 4.81871 129.27C4.42099 129.27 4.07795 129.316 3.78959 129.409C3.50124 129.502 3.27918 129.636 3.1234 129.812C2.96763 129.987 2.88974 130.198 2.88974 130.443Z" fill="#F8B300" fill-opacity="0.5"/>
<path d="M11.1816 116.123L11.1816 119.206L7.04528 121.194L7.04528 121.274L11.1816 123.262L11.1816 126.345L4.20153 122.606L0.999822 122.606L0.999822 119.862L4.20153 119.862L11.1816 116.123Z" fill="#F8B300" fill-opacity="0.5"/>
<path d="M0.861327 105.921C0.861328 105.092 1.02539 104.383 1.35352 103.793C1.68495 103.203 2.14566 102.75 2.73562 102.435C3.32889 102.121 4.01663 101.963 4.79883 101.963C5.58102 101.963 6.2671 102.121 6.85707 102.435C7.45034 102.75 7.91104 103.203 8.23917 103.793C8.57061 104.383 8.73633 105.092 8.73633 105.921C8.73633 106.749 8.57061 107.458 8.23917 108.048C7.91104 108.638 7.45034 109.091 6.85707 109.406C6.2671 109.72 5.58102 109.878 4.79883 109.878C4.01663 109.878 3.32889 109.72 2.73562 109.406C2.14566 109.091 1.68495 108.638 1.35351 108.048C1.02539 107.458 0.861327 106.749 0.861327 105.921ZM2.88974 105.94C2.88974 106.172 2.96763 106.373 3.1234 106.542C3.27918 106.711 3.50124 106.842 3.78959 106.935C4.07795 107.028 4.42099 107.074 4.81871 107.074C5.21976 107.074 5.5628 107.028 5.84783 106.935C6.13619 106.842 6.35825 106.711 6.51403 106.542C6.6698 106.373 6.74769 106.172 6.74769 105.94C6.74769 105.695 6.6698 105.485 6.51403 105.309C6.35825 105.133 6.13619 104.999 5.84783 104.906C5.5628 104.814 5.21976 104.767 4.81871 104.767C4.42099 104.767 4.07795 104.814 3.78959 104.906C3.50124 104.999 3.27918 105.133 3.1234 105.309C2.96763 105.485 2.88974 105.695 2.88974 105.94Z" fill="#F8B300" fill-opacity="0.5"/>
<path d="M7.82031 96.5995C7.99597 96.5564 8.15009 96.4885 8.28267 96.3957C8.41856 96.3029 8.53291 96.1869 8.62571 96.0477C8.72183 95.9118 8.79309 95.7527 8.83949 95.5704C8.8892 95.3914 8.91406 95.1942 8.91406 94.9788C8.91406 94.5147 8.80303 94.1187 8.58097 93.7906C8.3589 93.4657 8.03906 93.2172 7.62145 93.0448C7.20383 92.8758 6.70005 92.7913 6.11009 92.7913C5.51349 92.7913 5.00308 92.8725 4.57883 93.0349C4.15459 93.1973 3.82978 93.4392 3.6044 93.7607C3.37902 94.0822 3.26634 94.4816 3.26634 94.9589C3.26634 95.3798 3.32765 95.7295 3.45028 96.0079C3.57292 96.2896 3.74692 96.5001 3.9723 96.6393C4.19768 96.7785 4.46283 96.8481 4.76776 96.8481L4.71804 97.3253L4.71804 94.9986L6.68679 94.9986L6.68679 99.5128L5.27486 99.5128C4.34683 99.5128 3.55303 99.3156 2.89347 98.9212C2.23722 98.5301 1.73343 97.9899 1.3821 97.3005C1.03409 96.6144 0.860084 95.8272 0.860084 94.939C0.860084 93.948 1.07055 93.078 1.49148 92.3289C1.91241 91.5798 2.51231 90.9949 3.29119 90.5739C4.07008 90.1563 4.99645 89.9475 6.07031 89.9475C6.91217 89.9475 7.65791 90.0751 8.30753 90.3303C8.95715 90.5888 9.50568 90.9468 9.95312 91.4042C10.4039 91.8616 10.7436 92.3902 10.9723 92.9901C11.2043 93.59 11.3203 94.233 11.3203 94.9191C11.3203 95.5223 11.2341 96.0824 11.0618 96.5995C10.8928 97.1199 10.6508 97.5789 10.3359 97.9766C10.0244 98.3777 9.65483 98.7008 9.22727 98.9461C8.79972 99.1914 8.33073 99.3405 7.82031 99.3935L7.82031 96.5995Z" fill="#F8B300" fill-opacity="0.5"/>
<path d="M8.11133 80.9312C8.11133 81.2672 8.02733 81.5658 7.85933 81.8272C7.70066 82.0978 7.48599 82.3125 7.21533 82.4712C6.95399 82.6392 6.65533 82.7232 6.31933 82.7232C5.99266 82.7232 5.69399 82.6392 5.42333 82.4712C5.15266 82.3125 4.93333 82.0978 4.76533 81.8272C4.60666 81.5658 4.52733 81.2672 4.52733 80.9312C4.52733 80.6045 4.60666 80.3058 4.76533 80.0352C4.93333 79.7645 5.15266 79.5452 5.42333 79.3772C5.69399 79.2185 5.99266 79.1392 6.31933 79.1392C6.65533 79.1392 6.95399 79.2185 7.21533 79.3772C7.48599 79.5452 7.70066 79.7645 7.85933 80.0352C8.02733 80.3058 8.11133 80.6045 8.11133 80.9312Z" fill="#F8B300" fill-opacity="0.5"/>
<path d="M6.1511 71.9766L6.1511 69.4511C6.30688 69.4378 6.44111 69.3831 6.5538 69.287C6.66649 69.1909 6.75266 69.0666 6.81232 68.9141C6.8753 68.765 6.90678 68.5993 6.90678 68.417C6.90678 68.1816 6.8637 67.9795 6.77752 67.8104C6.69135 67.6414 6.56871 67.5585 6.40962 67.5619C6.29693 67.5585 6.19253 67.6066 6.09641 67.706C6.0003 67.8088 5.92572 68.006 5.87269 68.2977L5.59428 69.8488C5.45176 70.631 5.21147 71.2127 4.8734 71.5938C4.53865 71.9783 4.08955 72.1722 3.5261 72.1755C2.98254 72.1722 2.51024 72.0098 2.1092 71.6883C1.71147 71.3701 1.40323 70.9342 1.18448 70.3807C0.969045 69.8306 0.861327 69.2025 0.861327 68.4965C0.861328 67.3298 1.09996 66.4167 1.57724 65.7572C2.05451 65.1009 2.68424 64.7347 3.46644 64.6584L3.46644 67.3829C3.22449 67.4193 3.03723 67.5387 2.90465 67.7408C2.77539 67.9463 2.71076 68.2048 2.71076 68.5164C2.71076 68.7683 2.75385 68.9754 2.84002 69.1378C2.9262 69.3036 3.04883 69.3881 3.20792 69.3914C3.35375 69.3881 3.46976 69.3152 3.55593 69.1727C3.6421 69.0334 3.71171 68.8147 3.76474 68.5164L4.00337 67.1641C4.13926 66.3852 4.39779 65.8019 4.77894 65.4141C5.1601 65.0263 5.65063 64.8341 6.25053 64.8374C6.78084 64.8341 7.22994 64.9733 7.59783 65.255C7.96905 65.5401 8.25077 65.9461 8.443 66.4731C8.63855 67.0034 8.73633 67.6315 8.73633 68.3573C8.73633 69.461 8.50763 70.331 8.05025 70.9674C7.59286 71.6071 6.95981 71.9435 6.1511 71.9766Z" fill="#F8B300" fill-opacity="0.5"/>
<path d="M1.00053 57.5264L8.6369 57.5264L8.6369 60.1911L7.18519 60.1911L7.18519 60.2707C7.72212 60.4099 8.11488 60.6303 8.36346 60.9319C8.61204 61.2368 8.73633 61.5931 8.73633 62.0008C8.73633 62.1201 8.72638 62.2378 8.7065 62.3538C8.68993 62.4731 8.66507 62.5874 8.63192 62.6968L6.29031 62.6968C6.33671 62.5609 6.37151 62.3936 6.39471 62.1947C6.41791 61.9958 6.42951 61.8251 6.42951 61.6826C6.42951 61.4142 6.36819 61.1722 6.24556 60.9568C6.12624 60.7446 5.95721 60.5773 5.73846 60.4546C5.52302 60.332 5.26947 60.2707 4.97781 60.2707L1.00053 60.2707L1.00053 57.5264Z" fill="#F8B300" fill-opacity="0.5"/>
<path d="M4.34126 51.9861L8.63672 51.9861L8.63672 54.7304L1.00035 54.7304L1.00035 52.1253L2.45206 52.1253L2.45206 52.0458C1.96484 51.8801 1.58369 51.5901 1.30859 51.1758C1.03681 50.7615 0.900923 50.2693 0.900923 49.6992C0.900923 49.1656 1.02356 48.6982 1.26882 48.2972C1.51409 47.8995 1.85215 47.5896 2.28302 47.3675C2.7139 47.1488 3.20774 47.0377 3.76456 47.0344L8.63672 47.0344L8.63672 49.7787L4.34126 49.7787C3.96342 49.7821 3.66678 49.8782 3.45135 50.0671C3.23591 50.2593 3.1282 50.5278 3.1282 50.8725C3.1282 51.1012 3.17625 51.2984 3.27237 51.4641C3.3718 51.6331 3.51101 51.7624 3.68999 51.8519C3.87228 51.9447 4.08937 51.9894 4.34126 51.9861Z" fill="#F8B300" fill-opacity="0.5"/>
<path d="M0.861327 40.5636C0.861328 39.735 1.02539 39.0257 1.35352 38.4357C1.68495 37.8458 2.14566 37.3934 2.73562 37.0785C3.32889 36.7636 4.01663 36.6062 4.79883 36.6062C5.58102 36.6062 6.2671 36.7636 6.85707 37.0785C7.45034 37.3934 7.91104 37.8458 8.23917 38.4357C8.57061 39.0257 8.73633 39.735 8.73633 40.5636C8.73633 41.3922 8.57061 42.1015 8.23917 42.6914C7.91104 43.2814 7.45034 43.7338 6.85707 44.0487C6.2671 44.3635 5.58102 44.521 4.79883 44.521C4.01663 44.521 3.32889 44.3635 2.73562 44.0487C2.14566 43.7338 1.68495 43.2814 1.35351 42.6914C1.02539 42.1015 0.861327 41.3922 0.861327 40.5636ZM2.88974 40.5835C2.88974 40.8155 2.96763 41.016 3.1234 41.185C3.27918 41.3541 3.50124 41.485 3.78959 41.5778C4.07795 41.6706 4.42099 41.717 4.81871 41.717C5.21976 41.717 5.5628 41.6706 5.84783 41.5778C6.13619 41.485 6.35825 41.3541 6.51403 41.185C6.6698 41.016 6.74769 40.8155 6.74769 40.5835C6.74769 40.3382 6.6698 40.1277 6.51403 39.9521C6.35825 39.7764 6.13619 39.6422 5.84783 39.5494C5.5628 39.4566 5.21976 39.4102 4.81871 39.4102C4.42099 39.4102 4.07795 39.4566 3.78959 39.5494C3.50124 39.6422 3.27918 39.7764 3.1234 39.9521C2.96763 40.1277 2.88974 40.3382 2.88974 40.5835Z" fill="#F8B300" fill-opacity="0.5"/>
<path d="M11.1816 26.2634L11.1816 29.3458L7.04528 31.3344L7.04528 31.414L11.1816 33.4026L11.1816 36.485L4.20153 32.7464L0.999822 32.7464L0.999822 30.0021L4.20153 30.0021L11.1816 26.2634Z" fill="#F8B300" fill-opacity="0.5"/>
<path d="M0.861327 16.0607C0.861328 15.2321 1.02539 14.5228 1.35352 13.9328C1.68495 13.3429 2.14566 12.8904 2.73562 12.5756C3.32889 12.2607 4.01663 12.1033 4.79883 12.1033C5.58102 12.1033 6.2671 12.2607 6.85707 12.5756C7.45034 12.8904 7.91104 13.3429 8.23917 13.9328C8.57061 14.5228 8.73633 15.2321 8.73633 16.0607C8.73633 16.8893 8.57061 17.5985 8.23917 18.1885C7.91104 18.7785 7.45034 19.2309 6.85707 19.5457C6.2671 19.8606 5.58102 20.018 4.79883 20.018C4.01663 20.018 3.32889 19.8606 2.73562 19.5457C2.14566 19.2309 1.68495 18.7785 1.35351 18.1885C1.02539 17.5985 0.861327 16.8893 0.861327 16.0607ZM2.88974 16.0805C2.88974 16.3126 2.96763 16.5131 3.1234 16.6821C3.27918 16.8511 3.50124 16.9821 3.78959 17.0749C4.07795 17.1677 4.42099 17.2141 4.81871 17.2141C5.21976 17.2141 5.5628 17.1677 5.84783 17.0749C6.13619 16.9821 6.35825 16.8511 6.51403 16.6821C6.6698 16.5131 6.74769 16.3126 6.74769 16.0805C6.74769 15.8353 6.6698 15.6248 6.51403 15.4492C6.35825 15.2735 6.13619 15.1393 5.84783 15.0465C5.5628 14.9537 5.21976 14.9072 4.81871 14.9072C4.42099 14.9072 4.07795 14.9537 3.78959 15.0465C3.50124 15.1393 3.27918 15.2735 3.1234 15.4492C2.96763 15.6248 2.88974 15.8353 2.88974 16.0805Z" fill="#F8B300" fill-opacity="0.5"/>
<path d="M7.82031 6.73964C7.99597 6.69655 8.15009 6.6286 8.28267 6.5358C8.41856 6.443 8.53291 6.32699 8.62571 6.18779C8.72183 6.0519 8.79309 5.89281 8.83949 5.71052C8.8892 5.53154 8.91406 5.33433 8.91406 5.1189C8.91406 4.65488 8.80303 4.25881 8.58097 3.93069C8.3589 3.60588 8.03906 3.3573 7.62145 3.18495C7.20383 3.01591 6.70005 2.9314 6.11009 2.9314C5.51349 2.9314 5.00308 3.0126 4.57883 3.175C4.15459 3.33741 3.82978 3.57936 3.6044 3.90086C3.37902 4.22235 3.26634 4.62174 3.26634 5.09901C3.26634 5.51994 3.32765 5.86961 3.45028 6.14802C3.57292 6.42974 3.74692 6.6402 3.9723 6.77941C4.19768 6.91861 4.46283 6.98821 4.76776 6.98821L4.71804 7.46549L4.71804 5.13878L6.68679 5.13878L6.68679 9.65299L5.27486 9.65299C4.34683 9.65299 3.55303 9.45578 2.89347 9.06137C2.23722 8.67027 1.73343 8.13002 1.3821 7.44063C1.03409 6.75455 0.860084 5.96738 0.860084 5.07912C0.860084 4.08812 1.07055 3.21809 1.49148 2.46904C1.91241 1.71999 2.51231 1.13499 3.29119 0.714067C4.07008 0.296453 4.99645 0.0876462 6.07031 0.0876463C6.91217 0.0876463 7.65791 0.21525 8.30753 0.470459C8.95715 0.728982 9.50568 1.08694 9.95312 1.54432C10.4039 2.00171 10.7436 2.53035 10.9723 3.13026C11.2043 3.73017 11.3203 4.37316 11.3203 5.05924C11.3203 5.66246 11.2341 6.22259 11.0618 6.73964C10.8928 7.26 10.6508 7.71904 10.3359 8.11677C10.0244 8.51781 9.65483 8.84096 9.22727 9.08623C8.79972 9.33149 8.33073 9.48064 7.82031 9.53367L7.82031 6.73964Z" fill="#F8B300" fill-opacity="0.5"/>
</svg>
