<?xml version="1.0" encoding="utf-8"?>
<!-- Generator: Adobe Illustrator 28.1.0, SVG Export Plug-In . SVG Version: 6.00 Build 0)  -->
<svg version="1.1" id="_圖層_1" xmlns="http://www.w3.org/2000/svg" xmlns:xlink="http://www.w3.org/1999/xlink" x="0px" y="0px"
	 viewBox="0 0 310 629" style="enable-background:new 0 0 310 629;" xml:space="preserve">
<style type="text/css">
	.st0{fill:#FFEED9;}
</style>
<path class="st0" d="M309.3,377c9.8-210.1-81.9-247.4-81.9-247.4c-6-63.8-59.6-98.4-59.6-98.4c0.2-2.7,0-5.5,0-5.5
	c6.1-17-6.7-23.5-6.7-23.5c-22-9-26.2,11.7-26.2,11.7h-2c-23.6,4.5-55.7,14.7-55.7,14.7c-1,0.6-2.6,2.2-2.6,2.2
	c-2.8,2.2-2.2,13.7-2.2,13.7c-1,2.5-3.9,3.9-3.9,3.9c-3,0.8-48.2,9.4-48.2,9.4c-2.4,0.4-3.5,2.4-3.5,2.4c-2,2.7-0.8,19.6-0.8,19.6
	C19.6,92.8,34,99.3,34,99.3c40.1,13.7,46.2,32.4,46.2,32.4C-14.6,202.9,1,377,1,377L0,629h310V377H309.3z"/>
</svg>
