<?xml version="1.0" encoding="utf-8"?>
<!-- Generator: Adobe Illustrator 28.1.0, SVG Export Plug-In . SVG Version: 6.00 Build 0)  -->
<svg version="1.1" id="_圖層_1" xmlns="http://www.w3.org/2000/svg" xmlns:xlink="http://www.w3.org/1999/xlink" x="0px" y="0px"
	 viewBox="0 0 310 377" style="enable-background:new 0 0 310 377;" xml:space="preserve">
<style type="text/css">
	.st0{fill:#FFFFFF;}
</style>
<path class="st0" d="M1,377c0,0-15.6-174.1,79.3-245.3c0,0-6.2-18.8-46.2-32.4c0,0-14.4-6.5-18.1-19.4c0,0-1.2-17,0.8-19.6
	c0,0,1-2,3.5-2.5c0,0,45.1-8.6,48.2-9.4c0,0,2.8-1.4,3.9-3.9c0,0-0.6-11.4,2.2-13.7c0,0,1.6-1.6,2.6-2.2c0,0,32.1-10.2,55.7-14.7h2
	c0,0,4.3-20.6,26.2-11.6c0,0,12.8,6.5,6.7,23.5c0,0,0.2,2.9,0,5.5c0,0,53.6,34.6,59.6,98.4c0,0,91.7,37.2,81.9,247.4L1,377L1,377z"
	/>
</svg>
