<?xml version="1.0" encoding="utf-8"?>
<!-- Generator: Adobe Illustrator 28.1.0, SVG Export Plug-In . SVG Version: 6.00 Build 0)  -->
<svg version="1.1" id="_レイヤー_1" xmlns="http://www.w3.org/2000/svg" xmlns:xlink="http://www.w3.org/1999/xlink" x="0px"
	 y="0px" viewBox="0 0 284.2 345.4" style="enable-background:new 0 0 284.2 345.4;" xml:space="preserve">
<style type="text/css">
	.st0{fill:none;stroke:#F4BF00;stroke-width:15;stroke-miterlimit:10;}
</style>
<path class="st0" d="M8.7,337.8c0,0-13.6-150.5,68.6-211.9c0,0-5.4-16.2-40.1-28c0,0-12.5-5.6-15.7-16.7c0,0-1.1-14.6,0.7-16.9
	c0,0,0.9-1.8,3-2.1c0,0,39.1-7.4,41.8-8.1c0,0,2.5-1.2,3.3-3.3c0,0-0.5-9.9,1.9-11.8c0,0,1.4-1.4,2.3-1.9c0,0,27.8-8.8,48.3-12.7
	h1.8c0,0,3.7-17.8,22.7-10.1c0,0,11.1,5.6,5.8,20.3c0,0,0.2,2.5,0,4.8c0,0,46.4,29.8,51.6,84.9c0,0,79.4,32.1,70.9,213.5H8.7z"/>
</svg>
