<?xml version="1.0" encoding="UTF-8"?>
<svg id="_圖層_1" data-name="圖層 1" xmlns="http://www.w3.org/2000/svg" viewBox="0 0 310 377">
  <defs>
    <style>
      .cls-1 {
        fill: #ffe2bc;
        stroke-width: 0px;
      }
    </style>
  </defs>
  <path class="cls-1" d="M.96,377s-15.61-174.07,79.31-245.27c0,0-6.18-18.75-46.24-32.44,0,0-14.43-6.54-18.1-19.4,0,0-1.22-16.95.81-19.61,0,0,1.02-2.04,3.46-2.45,0,0,45.15-8.58,48.19-9.4,0,0,2.85-1.43,3.87-3.88,0,0-.61-11.44,2.24-13.69,0,0,1.63-1.63,2.64-2.25,0,0,32.13-10.21,55.72-14.71h2.03s4.27-20.63,26.23-11.65c0,0,12.81,6.54,6.71,23.49,0,0,.21,2.86,0,5.52,0,0,53.55,34.58,59.59,98.36,0,0,91.66,37.25,81.86,247.37H.96Z"/>
</svg>