<?xml version="1.0" encoding="utf-8"?>
<!-- Generator: Adobe Illustrator 28.1.0, SVG Export Plug-In . SVG Version: 6.00 Build 0)  -->
<svg version="1.1" id="_レイヤー_1" xmlns="http://www.w3.org/2000/svg" xmlns:xlink="http://www.w3.org/1999/xlink" x="0px"
	 y="0px" viewBox="0 0 283.5 283.5" style="enable-background:new 0 0 283.5 283.5;" xml:space="preserve">
<style type="text/css">
	.st0{fill:#FFF8EF;stroke:#FFF8EF;stroke-width:10;stroke-miterlimit:10;}
</style>
<path class="st0" d="M30.1,278.4c0,0-11.3-125.6,57.4-176.9c0,0-4.5-13.5-33.5-23.4c0,0-10.5-4.7-13.1-14c0,0-0.9-12.2,0.6-14.1
	c0,0,0.8-1.5,2.5-1.8c0,0,32.7-6.2,34.9-6.8c0,0,2.1-1,2.8-2.8c0,0-0.4-8.3,1.6-9.9c0,0,1.2-1.2,1.9-1.6c0,0,23.2-7.4,40.4-10.6h1.5
	c0,0,3.1-14.9,19-8.4c0,0,9.3,4.7,4.8,17c0,0,0.2,2.1,0,4c0,0,38.8,24.9,43.1,71c0,0,66.4,26.8,59.3,178.5L30.1,278.4L30.1,278.4z"
	/>
</svg>
