<svg width="82" height="108" viewBox="0 0 82 108" fill="none" xmlns="http://www.w3.org/2000/svg">
<g clip-path="url(#clip0_1069_6)">
<path d="M0.34253 32.3523C0.34253 32.3523 16.7451 16.0844 32.0227 19.7786C32.0227 19.7786 33.4088 17.5662 31.4143 12.3203C31.4143 12.3203 30.8591 10.2949 31.8586 8.83575C31.8586 8.83575 33.4814 7.28159 33.9233 7.26531C33.9233 7.26531 34.2169 7.19709 34.465 7.41276C34.465 7.41276 39.1565 11.3017 39.4979 11.5435C39.4979 11.5435 39.8841 11.7144 40.2201 11.6111C40.2201 11.6111 41.333 10.5844 41.8029 10.686C41.8029 10.686 42.1069 10.7144 42.2553 10.7663C42.2553 10.7663 46.0124 13.1881 48.4648 15.2181L48.6365 15.4255C48.6365 15.4255 51.0979 14.1227 52.0403 17.1227C52.0403 17.1227 52.458 18.9819 50.2165 19.7889C50.2165 19.7889 49.9426 20.0514 49.6548 20.2539C49.6548 20.2539 50.6625 28.6389 44.6806 34.6324C44.6806 34.6324 48.64 47.135 26.4178 63.8469L0.34253 32.3523Z" fill="#FFE2BC"/>
</g>
<g clip-path="url(#clip1_1069_6)">
<path d="M39.1652 64.0267C39.1652 64.0267 50.2946 55.154 59.4065 58.4334C59.4065 58.4334 60.4028 57.1706 59.5303 53.8247C59.5303 53.8247 59.325 52.5471 60.0342 51.7199C60.0342 51.7199 61.1317 50.8759 61.4035 50.8954C61.4035 50.8954 61.5878 50.8731 61.7255 51.0217C61.7255 51.0217 64.3402 53.716 64.5333 53.8868C64.5333 53.8868 64.7584 54.0172 64.9711 53.9762C64.9711 53.9762 65.7211 53.4214 66.0022 53.5149C66.0022 53.5149 66.1865 53.5526 66.2739 53.5943C66.2739 53.5943 68.414 55.3277 69.781 56.7343L69.8724 56.8728C69.8724 56.8728 71.4668 56.2386 71.8444 58.1388C71.8444 58.1388 71.9765 59.3054 70.5498 59.6505C70.5498 59.6505 70.3646 59.7931 70.1749 59.898C70.1749 59.898 70.2341 65.101 66.1712 68.374C66.1712 68.374 67.7643 76.2956 53.0407 85.053L39.1652 64.0267Z" fill="#FFE2BC"/>
</g>
<g clip-path="url(#clip2_1069_6)">
<path d="M58.2389 94.0982C58.2389 94.0982 65.4958 89.3412 70.8414 91.8466C70.8414 91.8466 71.5175 91.1364 71.1769 89.0561C71.1769 89.0561 71.1244 88.269 71.6017 87.807C71.6017 87.807 72.3155 87.3567 72.4794 87.3839C72.4794 87.3839 72.5926 87.3808 72.6677 87.4788C72.6677 87.4788 74.1027 89.2619 74.2102 89.3765C74.2102 89.3765 74.3395 89.4684 74.4709 89.4555C74.4709 89.4555 74.9575 89.1611 75.1228 89.2338C75.1228 89.2338 75.2326 89.267 75.2833 89.2973C75.2833 89.2973 76.4844 90.4704 77.2347 91.4014L77.2824 91.4906C77.2824 91.4906 78.286 91.1958 78.4078 92.3705C78.4078 92.3705 78.4221 93.0861 77.5366 93.215C77.5366 93.215 77.4161 93.2911 77.295 93.344C77.295 93.344 77.037 96.5056 74.3859 98.2628C74.3859 98.2628 74.9054 103.161 65.4734 107.645L58.2389 94.0982Z" fill="#FFE2BC"/>
</g>
<defs>
<clipPath id="clip0_1069_6">
<rect width="41.1114" height="49.832" fill="white" transform="translate(38.645 0.475586) rotate(50.3777)"/>
</clipPath>
<clipPath id="clip1_1069_6">
<rect width="25.3296" height="30.7025" fill="white" transform="translate(64.7471 47.0508) rotate(56.5785)"/>
</clipPath>
<clipPath id="clip2_1069_6">
<rect width="15.4415" height="18.717" fill="white" transform="translate(74.7261 85.2393) rotate(61.8961)"/>
</clipPath>
</defs>
</svg>
