<?xml version="1.0" encoding="UTF-8"?>
<svg id="_圖層_1" data-name="圖層_1" xmlns="http://www.w3.org/2000/svg" version="1.1" viewBox="0 0 620 146">
  <!-- Generator: Adobe Illustrator 29.1.0, SVG Export Plug-In . SVG Version: 2.1.0 Build 142)  -->
  <defs>
    <style>
      .st0 {
        fill: #f8b300;
      }
    </style>
  </defs>
  <path class="st0" d="M42.2,85.5v57.5H.5V.5h42.2l37.8,57.5c5.7,8.5,10,15.7,13,21.5h.8V.5h41.5v142.5h-42.5l-38.8-60-11.2-17h-.8l-.2,19.5ZM159.2.5h103.7v30h-58.7v26h49.5v27h-49.5v29h58.5v30.5h-103.5V.5ZM366,143h-56.2L273,.5h48l19,104.8h1.2L361.5.5h47l20.8,104.8h.8L449.2.5h46l-36.8,142.5h-56l-17-91h-1.5l-18,91ZM552.2,39c0,3.5,1.8,6.2,5.2,8.2,3.7,2,9.3,4.2,17,6.5,9.2,3,16.7,5.9,22.5,8.8,6,2.8,11.2,7.2,15.5,13.2,4.5,6,6.8,13.8,6.8,23.5,0,31-20.2,46.5-60.5,46.5s-14.8-.6-24.5-1.8c-9.5-1.2-18.2-2.7-26-4.5.3-3.5,1-8.6,2-15.2,1.2-6.8,2.2-11.9,3.2-15.2,5.8.8,14.6,1.8,26.2,3,11.8,1.2,20.8,1.8,26.8,1.8s5.6-.2,6.2-.8c1-.7,1.8-1.8,2.2-3.2.7-1.7,1-3.1,1-4.2,0-3.3-1.6-5.8-4.8-7.5-3.2-1.8-8.6-4-16.2-6.5-9.2-2.8-16.8-5.8-22.8-8.8s-11.2-7.7-15.8-14c-4.5-6.3-6.8-14.7-6.8-25s1.7-14.5,5-21.5c3.3-7.2,6.8-12,10.2-14.5,2.7-1.8,8.2-3.6,16.5-5.3C549.8.8,557.7,0,565,0,583.7,0,598.9,1.8,610.7,5.2c-.2,3.3-.8,7.9-1.8,13.8-.8,5.8-1.8,11.2-2.8,16l-5.8-.2c-21.7-1.5-35.5-2.2-41.5-2.2s-3.9,0-4.2.2c-.7.3-1.2,1.1-1.8,2.2s-.8,2.5-.8,4Z"/>
</svg>