<?xml version="1.0" encoding="UTF-8"?>
<svg id="_圖層_1" data-name="圖層 1" xmlns="http://www.w3.org/2000/svg" viewBox="0 0 42.52 42.52">
  <defs>
    <style>
      .cls-1 {
        fill: none;
        stroke: #fff;
        stroke-linecap: round;
        stroke-linejoin: round;
        stroke-width: 2px;
      }
    </style>
  </defs>
  <g>
    <path class="cls-1" d="M13.95,30.85c.38-.64.59-1.38.58-2.17-.03-2.32-1.92-4.17-4.24-4.15s-4.17,1.92-4.15,4.24,1.92,4.17,4.24,4.15"/>
    <path class="cls-1" d="M10.38,32.91c-3.56.04-6.55,2.4-7.54,5.63-.37,1.21.54,2.44,1.81,2.43l11.64-.13c1.27-.01,2.16-1.26,1.76-2.47-1.07-3.2-4.11-5.49-7.67-5.45"/>
  </g>
  <g>
    <path class="cls-1" d="M28.39,30.93c-.39-.63-.62-1.37-.63-2.16-.03-2.32,1.83-4.21,4.15-4.24s4.21,1.83,4.24,4.15c.03,2.32-1.83,4.21-4.15,4.24"/>
    <path class="cls-1" d="M32,32.91c3.56-.04,6.6,2.25,7.67,5.45.4,1.2-.49,2.45-1.76,2.47l-11.64.13c-1.27.01-2.19-1.21-1.81-2.43,1-3.23,3.98-5.59,7.54-5.63"/>
  </g>
  <g>
    <path class="cls-1" d="M33.28,3.01l.1,8.72c0,.81-.65,1.48-1.46,1.49l-2.43.03.05,4.26s-2.7-2.29-4.99-4.21l-6,.07c-.81,0-1.49-.64-1.5-1.45l-.1-8.72c0-.81.65-1.48,1.46-1.49l13.37-.15c.81,0,1.49.64,1.5,1.45Z"/>
    <path class="cls-1" d="M22.26,13.32l.04,3.61c0,.68-.54,1.24-1.23,1.25l-5.04.06c-1.89,1.66-4.1,3.62-4.1,3.62l-.04-3.57-2.05.02c-.68,0-1.24-.54-1.25-1.22l-.08-7.32c0-.69.54-1.25,1.22-1.26l7.28-.08.04,3.49c0,.81.68,1.46,1.5,1.45l3.72-.04Z"/>
  </g>
</svg>