<?xml version="1.0" encoding="UTF-8"?>
<svg id="_圖層_1" data-name="圖層 1" xmlns="http://www.w3.org/2000/svg" viewBox="0 0 42.52 42.52">
  <defs>
    <style>
      .cls-1 {
        fill: none;
        stroke: #fff;
        stroke-linecap: round;
        stroke-linejoin: round;
        stroke-width: 2px;
      }

      .cls-2 {
        fill: #fff;
        stroke-width: 0px;
      }
    </style>
  </defs>
  <path class="cls-1" d="M28.25,9.26v7.1c0,.75-.1,1.48-.31,2.16-.93,3.18-3.86,5.48-7.34,5.48h-11.53c-4.23,0-7.65-3.41-7.65-7.64v-7.1c0-4.23,3.42-7.64,7.65-7.64h11.53c4.23,0,7.65,3.41,7.65,7.64Z"/>
  <path class="cls-2" d="M34.87,18.51h-6.93c-.93,3.18-3.86,5.48-7.34,5.48h-4.59c-.21.68-.31,1.4-.31,2.16v7.11c0,4.22,3.41,7.64,7.64,7.64h11.53c4.23,0,7.65-3.42,7.65-7.64v-7.11c0-4.22-3.42-7.64-7.65-7.64ZM35.65,27.83h-2.3c-.33,1.12-1.14,3.16-2.89,5.19,1.02.85,2.29,1.69,3.9,2.4.52.23.76.85.53,1.38-.17.39-.55.62-.95.62-.15,0-.28-.02-.43-.08-1.88-.83-3.37-1.82-4.54-2.82-1.1.95-2.44,1.86-4.11,2.59-.14.05-.27.08-.42.08-.4,0-.78-.24-.95-.63-.23-.53.01-1.15.54-1.38,1.38-.6,2.5-1.34,3.42-2.12-1.72-1.9-2.31-3.52-2.35-3.64-.2-.54.08-1.14.63-1.33.54-.2,1.14.08,1.34.63.01.02.5,1.3,1.88,2.85,1.17-1.39,1.83-2.77,2.19-3.73h-8.59c-.59,0-1.05-.47-1.05-1.05s.46-1.05,1.05-1.05h5.54s0-2.22,0-2.22c0-.58.47-1.05,1.05-1.05s1.05.47,1.05,1.05v2.22s5.47,0,5.47,0c.59,0,1.05.47,1.05,1.05s-.46,1.05-1.05,1.05Z"/>
  <g>
    <polyline class="cls-1" points="19.18 18.15 14.84 7.47 10.49 18.15"/>
    <line class="cls-1" x1="12.22" y1="13.89" x2="17.45" y2="13.89"/>
  </g>
</svg>