<?xml version="1.0" encoding="UTF-8"?>
<svg id="_圖層_1" data-name="圖層 1" xmlns="http://www.w3.org/2000/svg" viewBox="0 0 42.52 42.52">
  <defs>
    <style>
      .cls-1 {
        fill: none;
        stroke: #fff;
        stroke-linecap: round;
        stroke-linejoin: round;
        stroke-width: 2px;
      }
    </style>
  </defs>
  <circle class="cls-1" cx="8.02" cy="7.62" r="3.31"/>
  <g>
    <line class="cls-1" x1="8.02" y1="36.46" x2="8.02" y2="26.39"/>
    <line class="cls-1" x1="4.33" y1="24.22" x2="4.33" y2="17.23"/>
  </g>
  <g>
    <line class="cls-1" x1="41.15" y1="8.71" x2="39.45" y2="8.71"/>
    <line class="cls-1" x1="14.73" y1="8.71" x2="13.2" y2="8.71"/>
    <line class="cls-1" x1="41.15" y1="25.92" x2="39.45" y2="25.92"/>
    <line class="cls-1" x1="14.73" y1="25.92" x2="13.2" y2="25.92"/>
  </g>
  <path class="cls-1" d="M20.11,14.51c0,.82-.66,1.49-1.48,1.49h-6.94s0,20.47,0,20.47c0,.91-.74,1.65-1.65,1.65h-.37c-.91,0-1.65-.74-1.65-1.65,0,.91-.74,1.65-1.65,1.65h-.38c-.91,0-1.65-.74-1.65-1.65v-10.75s-.01,0-.01,0v-1.49c0,.82-.66,1.49-1.48,1.49s-1.49-.67-1.49-1.49v-8.23c0-1.64,1.32-2.97,2.96-2.97h14.3c.82,0,1.48.67,1.48,1.49Z"/>
  <path class="cls-1" d="M39.45,8.71v17.21s-24.72,0-24.72,0v-9.92h3.9c.82,0,1.48-.67,1.48-1.49s-.66-1.49-1.48-1.49h-3.9v-4.32s24.72,0,24.72,0Z"/>
  <polygon class="cls-1" points="37.64 38.21 33.09 38.21 26.85 31.96 20.61 38.21 16.06 38.21 24.73 29.54 24.73 25.92 28.98 25.92 28.98 29.54 37.64 38.21"/>
</svg>