<?xml version="1.0" encoding="UTF-8"?>
<svg id="_圖層_1" data-name=" 圖層 1" xmlns="http://www.w3.org/2000/svg" viewBox="0 0 1417.32 1430.64">
  <defs>
    <style>
      .cls-1 {
        fill: #ffeed9;
        stroke-width: 0px;
      }
    </style>
  </defs>
  <path class="cls-1" d="M763.56,49.61l44.76,31c48.51,33.6,106.45,50.93,165.45,49.47l54.43-1.34c165.51-4.08,298.02,136.27,284.43,301.27l-4.47,54.27c-4.84,58.82,9.12,117.65,39.88,168.01l28.38,46.47c86.29,141.3,31,326.23-118.69,396.96l-49.23,23.26c-53.36,25.21-97.33,66.72-125.56,118.55l-26.05,47.81c-79.22,145.38-267.02,189.96-403.13,95.69l-44.76-31c-48.51-33.6-106.45-50.93-165.45-49.47l-54.43,1.34c-165.51,4.08-298.02-136.27-284.43-301.27l4.47-54.27c4.84-58.82-9.12-117.65-39.88-168.01l-28.38-46.47c-86.29-141.3-31-326.23,118.69-396.96l49.23-23.26c53.36-25.21,97.33-66.72,125.56-118.55l26.05-47.81C439.66-.09,627.46-44.66,763.56,49.61Z"/>
</svg>