<?xml version="1.0" encoding="UTF-8"?>
<svg id="_圖層_1" data-name="圖層 1" xmlns="http://www.w3.org/2000/svg" viewBox="0 0 42.52 42.52">
  <defs>
    <style>
      .cls-1, .cls-2 {
        stroke: #fff;
        stroke-linecap: round;
        stroke-linejoin: round;
      }

      .cls-1, .cls-3 {
        fill: #fff;
      }

      .cls-2 {
        fill: none;
        stroke-width: 2px;
      }

      .cls-3 {
        stroke-width: 0px;
      }
    </style>
  </defs>
  <path class="cls-2" d="M26.11,15.8v13.89c0,1.3-1.02,2.34-2.27,2.34h-9.19c-3.47,3.11-7.56,6.79-7.56,6.79v-6.79s-3.71,0-3.71,0c-1.24,0-2.27-1.04-2.27-2.34v-13.89c0-1.3,1.03-2.34,2.27-2.34h20.46c1.25,0,2.27,1.04,2.27,2.34Z"/>
  <path class="cls-2" d="M41.41,6.05v17.61c0,1.3-1.02,2.34-2.27,2.34h-3.71s0,6.8,0,6.8c0,0-4.09-3.69-7.56-6.8h-1.75v-10.21c0-1.3-1.02-2.34-2.27-2.34h-7.43s0-7.4,0-7.4c0-1.3,1.03-2.35,2.27-2.35h20.46c1.25,0,2.27,1.05,2.27,2.35Z"/>
  <g>
    <line class="cls-2" x1="22.02" y1="9.61" x2="29.05" y2="9.61"/>
    <line class="cls-2" x1="22.02" y1="13.45" x2="35.8" y2="13.45"/>
    <line class="cls-2" x1="26.11" y1="17.29" x2="35.8" y2="17.29"/>
    <line class="cls-2" x1="26.11" y1="21.13" x2="35.8" y2="21.13"/>
    <line class="cls-2" x1="31.53" y1="9.61" x2="35.8" y2="9.61"/>
  </g>
  <path class="cls-1" d="M20.2,22.62v4.94c0,.74-.7,1.44-1.44,1.44h-4.32c-.9,0-1.63-.11-2.47-.41-.26-.09-1.03-.41-1.03-.41v-5.76s3.39-3.99,3.39-3.99l.31-1.78h.61c.69,0,1.16.55,1.16,1.23v.38c0,.88-.05,1.76-.16,2.63l-.03.29h2.53c.74,0,1.44.7,1.44,1.44Z"/>
  <rect class="cls-3" x="7.03" y="21.8" width="3.08" height="6.99"/>
</svg>